<?xml version="1.0" standalone="no"?>
<!DOCTYPE svg PUBLIC "-//W3C//DTD SVG 1.1//EN" "http://www.w3.org/Graphics/SVG/1.1/DTD/svg11.dtd" >
<svg xmlns="http://www.w3.org/2000/svg">
<metadata>Generated by IcoMoon</metadata>
<defs>
<font id="77-Essential-Icons" horiz-adv-x="1024">
<font-face units-per-em="1024" ascent="960" descent="-64" />
<missing-glyph horiz-adv-x="1024" />
<glyph unicode="&#x20;" d="" horiz-adv-x="512" />
<glyph unicode="&#x21;" d="M886.784 163.328l-357.376 591.872c-4.096 6.144-10.24 10.24-17.408 10.24s-13.312-4.096-17.408-10.24l-358.4-593.92c-1.024-2.048-2.048-3.072-2.048-5.12s-1.024-4.096-1.024-5.12c0-1.024 0-1.024 0-2.048 0-3.072 1.024-6.144 2.048-8.192s3.072-5.12 5.12-6.144c2.048-1.024 4.096-2.048 6.144-3.072 2.048 0 4.096-1.024 6.144-1.024h716.8c11.264 0 20.48 9.216 20.48 20.48 1.024 5.12-1.024 9.216-3.072 12.288zM189.44 171.52l322.56 533.504 321.536-533.504h-644.096zM532.48 560.64v-163.84c0-11.264-9.216-20.48-20.48-20.48s-20.48 9.216-20.48 20.48v163.84c0 11.264 9.216 20.48 20.48 20.48s20.48-9.216 20.48-20.48zM512 335.36c-33.792 0-61.44-27.648-61.44-61.44s27.648-61.44 61.44-61.44c33.792 0 61.44 27.648 61.44 61.44s-27.648 61.44-61.44 61.44zM512 253.44c-11.264 0-20.48 9.216-20.48 20.48s9.216 20.48 20.48 20.48 20.48-9.216 20.48-20.48c0-11.264-9.216-20.48-20.48-20.48z" />
<glyph unicode="&#x2a;" d="M961.536 551.424c-2.048 7.168-9.216 12.288-16.384 13.312l-289.792 37.888-124.928 264.192c-3.072 7.168-10.24 11.264-18.432 11.264s-15.36-4.096-18.432-11.264l-124.928-264.192-289.792-37.888c-8.192-1.024-14.336-6.144-16.384-13.312s0-15.36 5.12-20.48l211.968-200.704-53.248-287.744c-1.024-8.192 2.048-15.36 8.192-20.48 6.144-4.096 15.36-5.12 21.504-1.024l256 139.264 256-139.264c3.072-2.048 6.144-2.048 10.24-2.048s8.192 1.024 12.288 4.096c6.144 4.096 9.216 12.288 8.192 20.48l-53.248 287.744 210.944 198.656c5.12 5.12 7.168 13.312 5.12 21.504zM708.608 350.72c-5.12-5.12-7.168-11.264-6.144-18.432l48.128-256-228.352 124.928c-3.072 2.048-6.144 2.048-10.24 2.048s-7.168-1.024-10.24-2.048l-227.328-124.928 48.128 256c1.024 7.168-1.024 13.312-6.144 18.432l-189.44 179.2 258.048 33.792c7.168 1.024 13.312 5.12 15.36 11.264l111.616 235.52 111.616-234.496c3.072-6.144 9.216-10.24 15.36-11.264l258.048-34.816-188.416-179.2z" />
<glyph unicode="&#x2b;" d="M737.28 448c0-11.264-9.216-20.48-20.48-20.48h-184.32v-184.32c0-11.264-9.216-20.48-20.48-20.48s-20.48 9.216-20.48 20.48v184.32h-184.32c-11.264 0-20.48 9.216-20.48 20.48s9.216 20.48 20.48 20.48h184.32v184.32c0 11.264 9.216 20.48 20.48 20.48s20.48-9.216 20.48-20.48v-184.32h184.32c11.264 0 20.48-9.216 20.48-20.48zM901.12 448c0-215.040-174.080-389.12-389.12-389.12s-389.12 174.080-389.12 389.12 174.080 389.12 389.12 389.12 389.12-174.080 389.12-389.12zM860.16 448c0 192.512-155.648 348.16-348.16 348.16s-348.16-155.648-348.16-348.16 155.648-348.16 348.16-348.16 348.16 155.648 348.16 348.16z" />
<glyph unicode="&#x2d;" d="M737.28 448c0-11.264-9.216-20.48-20.48-20.48h-409.6c-11.264 0-20.48 9.216-20.48 20.48s9.216 20.48 20.48 20.48h409.6c11.264 0 20.48-9.216 20.48-20.48zM901.12 448c0-215.040-174.080-389.12-389.12-389.12s-389.12 174.080-389.12 389.12 174.080 389.12 389.12 389.12 389.12-174.080 389.12-389.12zM860.16 448c0 192.512-155.648 348.16-348.16 348.16s-348.16-155.648-348.16-348.16 155.648-348.16 348.16-348.16 348.16 155.648 348.16 348.16z" />
<glyph unicode="&#x2e;" d="M880.64 785.92h-737.28c-11.264 0-20.48-9.216-20.48-20.48v-491.52c0-11.264 9.216-20.48 20.48-20.48h163.84v-122.88c0-8.192 5.12-15.36 12.288-18.432 3.072-2.048 5.12-2.048 8.192-2.048 5.12 0 10.24 2.048 14.336 6.144l139.264 137.216h399.36c11.264 0 20.48 9.216 20.48 20.48v491.52c0 11.264-9.216 20.48-20.48 20.48zM860.16 294.4h-387.072c-5.12 0-10.24-2.048-14.336-6.144l-110.592-108.544v94.208c0 11.264-9.216 20.48-20.48 20.48h-163.84v450.56h696.32v-450.56zM512 581.12c-39.936 0-71.68-31.744-71.68-71.68s31.744-71.68 71.68-71.68 71.68 31.744 71.68 71.68-31.744 71.68-71.68 71.68zM512 478.72c-17.408 0-30.72 14.336-30.72 30.72 0 17.408 13.312 30.72 30.72 30.72s30.72-13.312 30.72-30.72c0-16.384-13.312-30.72-30.72-30.72zM716.8 581.12c-39.936 0-71.68-31.744-71.68-71.68s31.744-71.68 71.68-71.68 71.68 31.744 71.68 71.68-31.744 71.68-71.68 71.68zM716.8 478.72c-17.408 0-30.72 14.336-30.72 30.72 0 17.408 13.312 30.72 30.72 30.72s30.72-13.312 30.72-30.72c0-16.384-13.312-30.72-30.72-30.72zM307.2 581.12c-39.936 0-71.68-31.744-71.68-71.68s31.744-71.68 71.68-71.68 71.68 31.744 71.68 71.68-31.744 71.68-71.68 71.68zM307.2 478.72c-17.408 0-30.72 14.336-30.72 30.72 0 17.408 13.312 30.72 30.72 30.72s30.72-13.312 30.72-30.72c0-16.384-13.312-30.72-30.72-30.72z" />
<glyph unicode="&#x2f;" d="M746.496 580.096c-8.192 8.192-20.48 8.192-28.672 0l-261.12-262.144-109.568 109.568c-8.192 8.192-20.48 8.192-28.672 0s-8.192-20.48 0-28.672l123.904-123.904c4.096-4.096 9.216-6.144 14.336-6.144s10.24 2.048 14.336 6.144l275.456 276.48c8.192 8.192 8.192 20.48 0 28.672zM512 837.12c-215.040 0-389.12-174.080-389.12-389.12s174.080-389.12 389.12-389.12 389.12 174.080 389.12 389.12-174.080 389.12-389.12 389.12zM512 99.84c-192.512 0-348.16 155.648-348.16 348.16s155.648 348.16 348.16 348.16 348.16-155.648 348.16-348.16-155.648-348.16-348.16-348.16zM717.824 580.096l-261.12-262.144-109.568 109.568c-8.192 8.192-20.48 8.192-28.672 0s-8.192-20.48 0-28.672l123.904-123.904c4.096-4.096 9.216-6.144 14.336-6.144s10.24 2.048 14.336 6.144l275.456 276.48c8.192 8.192 8.192 20.48 0 28.672s-20.48 8.192-28.672 0zM746.496 580.096c-8.192 8.192-20.48 8.192-28.672 0l-261.12-262.144-109.568 109.568c-8.192 8.192-20.48 8.192-28.672 0s-8.192-20.48 0-28.672l123.904-123.904c4.096-4.096 9.216-6.144 14.336-6.144s10.24 2.048 14.336 6.144l275.456 276.48c8.192 8.192 8.192 20.48 0 28.672z" />
<glyph unicode="&#x31;" d="M860.16 785.92h-696.32c-33.792 0-61.44-27.648-61.44-61.44v-430.080c0-33.792 27.648-61.44 61.44-61.44h225.28v-43.008c-1.024-4.096-9.216-15.36-13.312-20.48-11.264-14.336-22.528-28.672-14.336-45.056 3.072-7.168 11.264-14.336 27.648-14.336h235.52c10.24 0 33.792 0 41.984 18.432s-6.144 32.768-18.432 46.080c-4.096 5.12-11.264 12.288-13.312 16.384v41.984h225.28c33.792 0 61.44 27.648 61.44 61.44v430.080c0 33.792-27.648 61.44-61.44 61.44zM412.672 151.040c9.216 11.264 17.408 24.576 17.408 38.912v43.008h163.84v-43.008c0-14.336 10.24-27.648 20.48-38.912h-201.728zM880.64 294.4c0-11.264-9.216-20.48-20.48-20.48h-696.32c-11.264 0-20.48 9.216-20.48 20.48v61.44h737.28v-61.44zM880.64 396.8h-737.28v327.68c0 11.264 9.216 20.48 20.48 20.48h696.32c11.264 0 20.48-9.216 20.48-20.48v-327.68z" />
<glyph unicode="&#x32;" d="M910.336 357.888c-24.576 23.552-37.888 56.32-37.888 90.112s13.312 65.536 37.888 90.112c4.096 4.096 8.192 7.168 13.312 11.264 7.168 5.12 9.216 14.336 7.168 22.528-8.192 29.696-20.48 58.368-34.816 84.992-4.096 7.168-12.288 11.264-20.48 10.24-7.168-1.024-12.288-1.024-17.408-1.024-70.656 0-128 57.344-128 126.976 0 5.12 0 11.264 1.024 17.408 1.024 8.192-3.072 16.384-10.24 20.48-26.624 14.336-55.296 26.624-84.992 34.816-8.192 2.048-17.408-1.024-22.528-7.168-4.096-5.12-8.192-10.24-11.264-13.312-24.576-23.552-56.32-36.864-90.112-36.864s-66.56 13.312-90.112 36.864c-4.096 4.096-7.168 8.192-11.264 13.312-5.12 7.168-14.336 9.216-22.528 7.168-29.696-9.216-58.368-20.48-84.992-34.816-7.168-4.096-11.264-12.288-10.24-20.48 1.024-7.168 1.024-12.288 1.024-17.408 0-70.656-57.344-126.976-128-126.976-5.12 0-11.264 0-17.408 1.024-8.192 1.024-16.384-3.072-20.48-10.24-14.336-26.624-26.624-55.296-34.816-84.992-2.048-8.192 0-17.408 7.168-22.528 6.144-4.096 10.24-8.192 13.312-11.264 50.176-49.152 50.176-130.048 0-180.224-4.096-4.096-8.192-7.168-13.312-11.264-7.168-5.12-9.216-14.336-7.168-22.528 9.216-29.696 20.48-58.368 34.816-84.992 4.096-7.168 12.288-11.264 20.48-10.24 7.168 1.024 12.288 1.024 17.408 1.024 70.656 0 128-57.344 128-126.976 0-5.12 0-11.264-1.024-17.408-1.024-8.192 3.072-16.384 10.24-20.48 26.624-14.336 55.296-26.624 84.992-34.816 8.192-2.048 17.408 0 22.528 7.168 4.096 5.12 8.192 10.24 11.264 13.312 24.576 23.552 56.32 36.864 90.112 36.864s66.56-13.312 90.112-36.864c4.096-4.096 7.168-8.192 11.264-13.312s10.24-8.192 16.384-8.192c2.048 0 4.096 0 6.144 1.024 29.696 9.216 58.368 20.48 84.992 34.816 7.168 4.096 11.264 12.288 10.24 20.48-1.024 7.168-1.024 12.288-1.024 17.408 0 70.656 57.344 126.976 128 126.976 5.12 0 11.264 0 17.408-1.024 8.192-1.024 16.384 3.072 20.48 10.24 14.336 26.624 26.624 55.296 34.816 84.992 2.048 8.192 0 17.408-7.168 22.528-5.12 4.096-10.24 7.168-13.312 11.264zM866.304 270.848c-3.072 0-6.144 0-9.216 0-93.184 0-168.96-75.776-168.96-167.936 0-3.072 0-6.144 0-9.216-16.384-8.192-33.792-15.36-52.224-21.504-2.048 2.048-4.096 4.096-6.144 6.144-31.744 31.744-73.728 49.152-118.784 49.152s-87.040-17.408-118.784-49.152c-2.048-2.048-4.096-4.096-6.144-6.144-17.408 6.144-34.816 13.312-52.224 21.504 0 3.072 0 6.144 0 9.216 0 93.184-75.776 167.936-168.96 167.936-3.072 0-6.144 0-9.216 0-8.192 16.384-15.36 33.792-21.504 52.224 2.048 2.048 4.096 4.096 6.144 6.144 65.536 65.536 65.536 172.032 0 238.592-2.048 2.048-4.096 4.096-6.144 6.144 6.144 17.408 13.312 34.816 21.504 52.224 3.072 0 6.144 0 9.216 0 93.184 0 168.96 75.776 168.96 167.936 0 3.072 0 6.144 0 9.216 16.384 8.192 33.792 15.36 52.224 21.504 2.048-2.048 4.096-4.096 6.144-6.144 31.744-31.744 73.728-49.152 118.784-49.152s87.040 17.408 118.784 49.152c2.048 2.048 4.096 4.096 6.144 6.144 17.408-6.144 34.816-13.312 52.224-21.504 0-3.072 0-6.144 0-9.216 0-93.184 75.776-167.936 168.96-167.936 3.072 0 6.144 0 9.216 0 8.192-16.384 15.36-33.792 21.504-52.224-2.048-2.048-4.096-4.096-6.144-6.144-31.744-31.744-49.152-73.728-49.152-118.784s17.408-87.040 49.152-118.784c2.048-2.048 4.096-4.096 6.144-6.144-6.144-19.456-13.312-36.864-21.504-53.248zM512 691.712c-134.144 0-243.712-109.568-243.712-243.712s109.568-243.712 243.712-243.712 243.712 109.568 243.712 243.712-109.568 243.712-243.712 243.712zM512 245.248c-111.616 0-202.752 91.136-202.752 202.752s91.136 202.752 202.752 202.752 202.752-91.136 202.752-202.752c0-111.616-91.136-202.752-202.752-202.752z" />
<glyph unicode="&#x33;" d="M512 79.36c-5.12 0-10.24 2.048-14.336 6.144l-336.896 333.824c-14.336 13.312-25.6 28.672-35.84 45.056-55.296 91.136-40.96 207.872 35.84 283.648 44.032 44.032 103.424 68.608 165.888 68.608 41.984 0 83.968-11.264 119.808-32.768 16.384-9.216 31.744-21.504 46.080-35.84 7.168-7.168 13.312-14.336 19.456-21.504 6.144 7.168 12.288 14.336 19.456 21.504 14.336 13.312 29.696 25.6 46.080 35.84 35.84 21.504 77.824 32.768 119.808 32.768 62.464 0 121.856-24.576 165.888-68.608 75.776-75.776 91.136-192.512 35.84-283.648-10.24-16.384-21.504-31.744-35.84-45.056l-336.896-333.824c-4.096-4.096-9.216-6.144-14.336-6.144zM326.656 775.68c-52.224 0-100.352-20.48-137.216-56.32-62.464-62.464-74.752-158.72-29.696-233.472 8.192-13.312 18.432-26.624 29.696-37.888l322.56-319.488 322.56 319.488c11.264 11.264 21.504 23.552 29.696 37.888 45.056 75.776 33.792 172.032-29.696 233.472-36.864 35.84-86.016 56.32-137.216 56.32-34.816 0-69.632-9.216-99.328-26.624-13.312-8.192-26.624-17.408-37.888-29.696-12.288-12.288-22.528-25.6-30.72-38.912-4.096-6.144-10.24-10.24-17.408-10.24v0c-7.168 0-14.336 4.096-17.408 10.24-8.192 14.336-18.432 27.648-30.72 38.912-11.264 11.264-24.576 21.504-37.888 28.672-29.696 18.432-64.512 27.648-99.328 27.648z" />
<glyph unicode="&#x3a;" d="M512 837.12c-215.040 0-389.12-174.080-389.12-389.12s174.080-389.12 389.12-389.12 389.12 174.080 389.12 389.12-174.080 389.12-389.12 389.12zM512 99.84c-192.512 0-348.16 155.648-348.16 348.16s155.648 348.16 348.16 348.16 348.16-155.648 348.16-348.16-155.648-348.16-348.16-348.16zM711.68 448c0-11.264-9.216-20.48-20.48-20.48h-229.376c-11.264 0-20.48 9.216-20.48 20.48s9.216 20.48 20.48 20.48h229.376c11.264 0 20.48-9.216 20.48-20.48zM711.68 325.12c0-11.264-9.216-20.48-20.48-20.48h-229.376c-11.264 0-20.48 9.216-20.48 20.48s9.216 20.48 20.48 20.48h229.376c11.264 0 20.48-9.216 20.48-20.48zM392.192 448c0-11.264-9.216-20.48-20.48-20.48h-38.912c-11.264 0-20.48 9.216-20.48 20.48s9.216 20.48 20.48 20.48h38.912c11.264 0 20.48-9.216 20.48-20.48zM392.192 325.12c0-11.264-9.216-20.48-20.48-20.48h-38.912c-11.264 0-20.48 9.216-20.48 20.48s9.216 20.48 20.48 20.48h38.912c11.264 0 20.48-9.216 20.48-20.48zM711.68 570.88c0-11.264-9.216-20.48-20.48-20.48h-229.376c-11.264 0-20.48 9.216-20.48 20.48s9.216 20.48 20.48 20.48h229.376c11.264 0 20.48-9.216 20.48-20.48zM392.192 570.88c0-11.264-9.216-20.48-20.48-20.48h-38.912c-11.264 0-20.48 9.216-20.48 20.48s9.216 20.48 20.48 20.48h38.912c11.264 0 20.48-9.216 20.48-20.48z" />
<glyph unicode="&#x3c;" d="M592.896 264.704c-4.096-4.096-9.216-6.144-14.336-6.144s-10.24 2.048-14.336 6.144l-174.080 173.056c-8.192 8.192-8.192 20.48 0 28.672l164.864 164.864c8.192 8.192 21.504 8.192 28.672 0 8.192-8.192 8.192-20.48 0-28.672l-149.504-150.528 158.72-158.72c7.168-8.192 7.168-20.48 0-28.672zM901.12 448c0-215.040-174.080-389.12-389.12-389.12s-389.12 174.080-389.12 389.12 174.080 389.12 389.12 389.12 389.12-174.080 389.12-389.12zM860.16 448c0 192.512-155.648 348.16-348.16 348.16s-348.16-155.648-348.16-348.16 155.648-348.16 348.16-348.16 348.16 155.648 348.16 348.16z" />
<glyph unicode="&#x3d;" d="M512 837.12c-215.040 0-389.12-174.080-389.12-389.12s174.080-389.12 389.12-389.12 389.12 174.080 389.12 389.12-174.080 389.12-389.12 389.12zM512 99.84c-192.512 0-348.16 155.648-348.16 348.16s155.648 348.16 348.16 348.16 348.16-155.648 348.16-348.16-155.648-348.16-348.16-348.16zM711.68 448c0-11.264-9.216-20.48-20.48-20.48h-358.4c-11.264 0-20.48 9.216-20.48 20.48s9.216 20.48 20.48 20.48h358.4c11.264 0 20.48-9.216 20.48-20.48zM711.68 325.12c0-11.264-9.216-20.48-20.48-20.48h-358.4c-11.264 0-20.48 9.216-20.48 20.48s9.216 20.48 20.48 20.48h358.4c11.264 0 20.48-9.216 20.48-20.48zM711.68 570.88c0-11.264-9.216-20.48-20.48-20.48h-358.4c-11.264 0-20.48 9.216-20.48 20.48s9.216 20.48 20.48 20.48h358.4c11.264 0 20.48-9.216 20.48-20.48z" />
<glyph unicode="&#x3e;" d="M633.856 429.568l-164.864-164.864c-4.096-4.096-9.216-6.144-14.336-6.144s-10.24 2.048-14.336 6.144c-8.192 8.192-8.192 20.48 0 28.672l150.528 150.528-159.744 158.72c-8.192 8.192-8.192 20.48 0 28.672s20.48 8.192 28.672 0l174.080-173.056c7.168-8.192 7.168-20.48 0-28.672zM901.12 448c0-215.040-174.080-389.12-389.12-389.12s-389.12 174.080-389.12 389.12 174.080 389.12 389.12 389.12 389.12-174.080 389.12-389.12zM860.16 448c0 192.512-155.648 348.16-348.16 348.16s-348.16-155.648-348.16-348.16 155.648-348.16 348.16-348.16 348.16 155.648 348.16 348.16z" />
<glyph unicode="&#x40;" d="M768 304.64c-49.152 0-93.184-23.552-120.832-59.392l-248.832 144.384c7.168 17.408 11.264 37.888 11.264 58.368s-4.096 40.96-11.264 58.368l248.832 144.384c28.672-35.84 71.68-59.392 120.832-59.392 84.992 0 153.6 68.608 153.6 153.6s-68.608 153.6-153.6 153.6-153.6-68.608-153.6-153.6c0-20.48 4.096-40.96 11.264-58.368l-248.832-144.384c-28.672 35.84-71.68 59.392-120.832 59.392-84.992 0-153.6-68.608-153.6-153.6s68.608-153.6 153.6-153.6c49.152 0 93.184 23.552 120.832 59.392l248.832-144.384c-7.168-17.408-11.264-37.888-11.264-58.368 0-84.992 68.608-153.6 153.6-153.6s153.6 68.608 153.6 153.6c0 84.992-68.608 153.6-153.6 153.6zM768 857.6c62.464 0 112.64-50.176 112.64-112.64s-50.176-112.64-112.64-112.64c-62.464 0-112.64 50.176-112.64 112.64s50.176 112.64 112.64 112.64zM256 335.36c-62.464 0-112.64 50.176-112.64 112.64s50.176 112.64 112.64 112.64c62.464 0 112.64-50.176 112.64-112.64s-50.176-112.64-112.64-112.64zM768 38.4c-62.464 0-112.64 50.176-112.64 112.64s50.176 112.64 112.64 112.64c62.464 0 112.64-50.176 112.64-112.64s-50.176-112.64-112.64-112.64z" />
<glyph unicode="&#x41;" d="M532.48 182.784v-103.424h143.36c11.264 0 20.48-9.216 20.48-20.48s-9.216-20.48-20.48-20.48h-327.68c-11.264 0-20.48 9.216-20.48 20.48s9.216 20.48 20.48 20.48h143.36v103.424c-137.216 10.24-245.76 125.952-245.76 265.216 0 11.264 9.216 20.48 20.48 20.48s20.48-9.216 20.48-20.48c0-123.904 101.376-225.28 225.28-225.28s225.28 101.376 225.28 225.28c0 11.264 9.216 20.48 20.48 20.48s20.48-9.216 20.48-20.48c0-140.288-108.544-254.976-245.76-265.216zM665.6 704v-256c0-84.992-68.608-153.6-153.6-153.6s-153.6 68.608-153.6 153.6v256c0 84.992 68.608 153.6 153.6 153.6s153.6-68.608 153.6-153.6zM624.64 704c0 62.464-50.176 112.64-112.64 112.64s-112.64-50.176-112.64-112.64v-256c0-62.464 50.176-112.64 112.64-112.64s112.64 50.176 112.64 112.64v256z" />
<glyph unicode="&#x42;" d="M706.56 806.4h-389.12c-11.264 0-20.48-9.216-20.48-20.48v-675.84c0-8.192 5.12-15.36 12.288-18.432 8.192-3.072 16.384-1.024 22.528 4.096l180.224 180.224 180.224-180.224c4.096-4.096 9.216-6.144 14.336-6.144 3.072 0 5.12 0 8.192 2.048 7.168 3.072 12.288 10.24 12.288 18.432v675.84c0 11.264-9.216 20.48-20.48 20.48zM686.080 159.232l-159.744 159.744c-4.096 4.096-9.216 6.144-14.336 6.144s-10.24-2.048-14.336-6.144l-159.744-159.744v606.208h348.16v-606.208z" />
<glyph unicode="&#x43;" d="M512 622.080c-107.52 0-194.56-87.040-194.56-194.56s87.040-194.56 194.56-194.56 194.56 87.040 194.56 194.56-87.040 194.56-194.56 194.56zM512 273.92c-84.992 0-153.6 68.608-153.6 153.6s68.608 153.6 153.6 153.6 153.6-68.608 153.6-153.6c0-84.992-68.608-153.6-153.6-153.6zM849.92 663.040h-153.6l-64.512 83.968c-4.096 5.12-10.24 8.192-16.384 8.192h-206.848c-6.144 0-12.288-3.072-16.384-8.192l-64.512-83.968h-153.6c-45.056 0-81.92-36.864-81.92-81.92v-358.4c0-45.056 36.864-81.92 81.92-81.92h675.84c45.056 0 81.92 36.864 81.92 81.92v358.4c0 45.056-36.864 81.92-81.92 81.92zM890.88 222.72c0-22.528-18.432-40.96-40.96-40.96h-675.84c-22.528 0-40.96 18.432-40.96 40.96v358.4c0 22.528 18.432 40.96 40.96 40.96h163.84c6.144 0 12.288 3.072 16.384 8.192l64.512 83.968h186.368l64.512-83.968c4.096-5.12 10.24-8.192 16.384-8.192h163.84c22.528 0 40.96-18.432 40.96-40.96v-358.4z" />
<glyph unicode="&#x44;" d="M829.44 329.216v0c0 0 0 0 0 0l-81.92 419.84c-2.048 9.216-10.24 16.384-20.48 16.384h-419.84c-9.216 0-18.432-6.144-19.456-16.384l-92.16-419.84c0-1.024-1.024-3.072-1.024-4.096v-174.080c0-11.264 9.216-20.48 20.48-20.48h593.92c11.264 0 20.48 9.216 20.48 20.48v174.080c0 1.024 0 3.072 0 4.096zM323.584 724.48h386.048l73.728-378.88h-199.68c-11.264 0-20.48-9.216-20.48-20.48 0-28.672-22.528-51.2-51.2-51.2s-51.2 22.528-51.2 51.2c0 11.264-9.216 20.48-20.48 20.48h-199.68l82.944 378.88zM788.48 171.52h-552.96v133.12h186.368c9.216-40.96 46.080-71.68 90.112-71.68s80.896 30.72 90.112 71.68h186.368v-133.12z" />
<glyph unicode="&#x45;" d="M860.16 816.64h-280.576c-5.12 0-10.24-2.048-14.336-6.144l-415.744-414.72c-8.192-8.192-8.192-20.48 0-28.672l280.576-281.6c4.096-4.096 9.216-6.144 14.336-6.144s10.24 2.048 14.336 6.144l414.72 414.72c4.096 4.096 6.144 9.216 6.144 14.336v281.6c1.024 11.264-8.192 20.48-19.456 20.48zM839.68 523.776l-394.24-395.264-252.928 252.928 395.264 394.24h251.904v-251.904zM764.928 700.928c-15.36 15.36-36.864 23.552-58.368 23.552s-41.984-8.192-58.368-23.552c-15.36-15.36-23.552-36.864-23.552-58.368s8.192-41.984 23.552-58.368c15.36-15.36 35.84-23.552 58.368-23.552 21.504 0 41.984 8.192 58.368 23.552 15.36 15.36 23.552 35.84 23.552 58.368s-8.192 43.008-23.552 58.368zM735.232 613.888c-15.36-15.36-43.008-15.36-58.368 0-7.168 7.168-11.264 17.408-11.264 28.672s4.096 21.504 12.288 28.672c8.192 8.192 18.432 12.288 28.672 12.288 11.264 0 21.504-4.096 28.672-12.288s12.288-18.432 12.288-28.672-4.096-21.504-12.288-28.672z" />
<glyph unicode="&#x46;" d="M884.736 585.216l-286.72 286.72c-6.144 6.144-14.336 8.192-22.528 4.096-7.168-3.072-12.288-10.24-12.288-18.432v-139.264c-14.336 2.048-31.744 3.072-49.152 3.072-209.92 0-380.928-167.936-380.928-374.784 0-138.24 76.8-261.12 205.824-326.656 3.072-2.048 6.144-2.048 9.216-2.048 6.144 0 12.288 3.072 16.384 8.192 6.144 7.168 6.144 18.432 0 25.6-37.888 44.032-55.296 91.136-55.296 143.36 0 129.024 106.496 234.496 237.568 234.496 6.144 0 12.288 0 17.408-1.024v-144.384c0-8.192 5.12-15.36 12.288-18.432 8.192-3.072 16.384-1.024 22.528 4.096l286.72 286.72c3.072 4.096 5.12 9.216 5.12 14.336s-2.048 10.24-6.144 14.336zM604.16 333.312v114.688c0 10.24-7.168 18.432-17.408 20.48-12.288 2.048-26.624 3.072-40.96 3.072-153.6 0-278.528-123.904-278.528-275.456 0-30.72 5.12-60.416 16.384-88.064-69.632 60.416-109.568 145.408-109.568 238.592 0 183.296 152.576 332.8 340.992 332.8 24.576 0 49.152-4.096 65.536-7.168 6.144-1.024 12.288 0 17.408 4.096s7.168 9.216 7.168 15.36v116.736l236.544-237.568-237.568-237.568z" />
<glyph unicode="&#x47;" d="M512 837.12c-214.016 0-389.12-174.080-389.12-389.12s175.104-389.12 389.12-389.12 389.12 174.080 389.12 389.12-175.104 389.12-389.12 389.12zM532.48 795.136c176.128-10.24 316.416-151.552 326.656-326.656h-326.656v326.656zM512 99.84c-192.512 0-348.16 155.648-348.16 348.16 0 185.344 145.408 336.896 327.68 347.136v-347.136c0-5.12 2.048-10.24 6.144-14.336l245.76-245.76c-61.44-54.272-142.336-88.064-231.424-88.064zM772.096 216.576l-210.944 210.944h297.984c-4.096-80.896-36.864-153.6-87.040-210.944z" />
<glyph unicode="&#x48;" d="M848.896 424.448c-2.048 7.168-9.216 12.288-16.384 13.312l-131.072 17.408 87.040 398.336c1.024 6.144 0 12.288-4.096 17.408-4.096 4.096-10.24 7.168-16.384 7.168h-512c-6.144 0-12.288-3.072-15.36-7.168-4.096-5.12-5.12-11.264-4.096-17.408l88.064-397.312-132.096-17.408c-8.192-1.024-14.336-6.144-16.384-13.312s0-15.36 5.12-21.504l154.624-148.48-38.912-212.992c-1.024-8.192 2.048-15.36 8.192-20.48s15.36-5.12 21.504-1.024l185.344 102.4 186.368-103.424c3.072-2.048 6.144-2.048 10.24-2.048s8.192 1.024 12.288 4.096c6.144 5.12 9.216 12.288 8.192 20.48l-38.912 212.992 154.624 148.48c4.096 5.12 6.144 13.312 4.096 20.48zM532.48 837.12h209.92l-82.944-375.808-37.888 5.12-89.088 191.488v179.2zM281.6 837.12h209.92v-179.2l-89.088-191.488-37.888-5.12-82.944 375.808zM653.312 276.992c-5.12-5.12-7.168-11.264-6.144-18.432l32.768-181.248-157.696 88.064c-3.072 2.048-6.144 2.048-10.24 2.048s-7.168-1.024-10.24-2.048l-158.72-88.064 32.768 181.248c1.024 7.168-1.024 13.312-6.144 18.432l-130.048 126.976 179.2 23.552c7.168 1.024 13.312 5.12 15.36 11.264l77.824 165.888 76.8-165.888c3.072-6.144 9.216-10.24 15.36-11.264l179.2-23.552-130.048-126.976z" />
<glyph unicode="&#x49;" d="M737.28 847.36h-450.56c-33.792 0-61.44-27.648-61.44-61.44v-675.84c0-33.792 27.648-61.44 61.44-61.44h450.56c33.792 0 61.44 27.648 61.44 61.44v675.84c0 33.792-27.648 61.44-61.44 61.44zM757.76 110.080c0-11.264-9.216-20.48-20.48-20.48h-450.56c-11.264 0-20.48 9.216-20.48 20.48v40.96h491.52v-40.96zM757.76 192h-491.52v512h491.52v-512zM757.76 744.96h-491.52v40.96c0 11.264 9.216 20.48 20.48 20.48h450.56c11.264 0 20.48-9.216 20.48-20.48v-40.96z" />
<glyph unicode="&#x4a;" d="M884.736 500.224l-320.512 320.512c-8.192 8.192-21.504 8.192-29.696 0-4.096-4.096-6.144-9.216-6.144-15.36v-137.216l-232.448-169.984h-141.312c-5.12 0-10.24-2.048-14.336-6.144-5.12-3.072-7.168-9.216-7.168-14.336 0-6.144 2.048-11.264 6.144-15.36l178.176-179.2-148.48-149.504c-8.192-8.192-8.192-21.504 0-29.696 4.096-4.096 9.216-6.144 15.36-6.144s11.264 2.048 15.36 6.144l148.48 149.504 178.176-178.176c4.096-4.096 9.216-6.144 15.36-6.144v0c6.144 0 11.264 3.072 15.36 7.168s5.12 9.216 5.12 14.336v140.288l171.008 233.472h137.216c5.12 0 11.264 2.048 15.36 6.144 7.168 7.168 7.168 21.504-1.024 29.696zM205.824 456.192h88.064l226.304-226.304v-88.064l-314.368 314.368zM538.624 270.848l-203.776 202.752 211.968 155.648 146.432-147.456-154.624-210.944zM731.136 506.368l-160.768 159.744v88.064l248.832-247.808h-88.064z" />
<glyph unicode="&#x4b;" d="M905.216 841.216c-6.144 6.144-14.336 7.168-22.528 4.096l-757.76-314.368c-8.192-3.072-13.312-11.264-12.288-20.48s7.168-16.384 15.36-18.432l349.184-78.848 78.848-349.184c2.048-8.192 9.216-15.36 18.432-15.36 0 0 1.024 0 2.048 0 8.192 0 15.36 5.12 18.432 12.288l315.392 757.76c3.072 8.192 1.024 17.408-5.12 22.528zM199.68 517.632l605.184 251.904-316.416-316.416-288.768 64.512zM581.632 135.68l-65.536 288.768 316.416 316.416-250.88-605.184z" />
<glyph unicode="&#x4c;" d="M860.16 816.64h-491.52c-11.264 0-20.48-9.216-20.48-20.48v-184.32h-184.32c-11.264 0-20.48-9.216-20.48-20.48v-491.52c0-11.264 9.216-20.48 20.48-20.48h491.52c11.264 0 20.48 9.216 20.48 20.48v184.32h184.32c11.264 0 20.48 9.216 20.48 20.48v491.52c0 11.264-9.216 20.48-20.48 20.48zM634.88 120.32h-450.56v450.56h163.84v-266.24c0-11.264 9.216-20.48 20.48-20.48h266.24v-163.84zM839.68 325.12h-450.56v450.56h450.56v-450.56z" />
<glyph unicode="&#x4d;" d="M880.64 785.92h-737.28c-11.264 0-20.48-9.216-20.48-20.48v-491.52c0-11.264 9.216-20.48 20.48-20.48h163.84v-122.88c0-8.192 5.12-15.36 12.288-18.432 3.072-2.048 5.12-2.048 8.192-2.048 5.12 0 10.24 2.048 14.336 6.144l139.264 137.216h399.36c11.264 0 20.48 9.216 20.48 20.48v491.52c0 11.264-9.216 20.48-20.48 20.48zM860.16 294.4h-387.072c-5.12 0-10.24-2.048-14.336-6.144l-110.592-108.544v94.208c0 11.264-9.216 20.48-20.48 20.48h-163.84v450.56h696.32v-450.56z" />
<glyph unicode="&#x4e;" d="M904.192 842.24c-5.12 4.096-11.264 5.12-17.408 4.096l-491.52-102.4c-9.216-2.048-16.384-10.24-16.384-20.48v-417.792c-27.648 30.72-68.608 49.152-112.64 49.152-84.992 0-153.6-68.608-153.6-153.6s68.608-153.6 153.6-153.6 153.6 68.608 153.6 153.6v363.52l450.56 94.208v-249.856c-27.648 30.72-68.608 49.152-112.64 49.152-84.992 0-153.6-68.608-153.6-153.6s68.608-153.6 153.6-153.6 153.6 68.608 153.6 153.6v522.24c0 6.144-3.072 12.288-7.168 15.36zM266.24 89.6c-62.464 0-112.64 50.176-112.64 112.64s50.176 112.64 112.64 112.64 112.64-50.176 112.64-112.64-50.176-112.64-112.64-112.64zM757.76 192c-62.464 0-112.64 50.176-112.64 112.64s50.176 112.64 112.64 112.64 112.64-50.176 112.64-112.64-50.176-112.64-112.64-112.64zM870.4 699.904l-450.56-94.208v101.376l450.56 94.208v-101.376z" />
<glyph unicode="&#x4f;" d="M512 837.12c-215.040 0-389.12-174.080-389.12-389.12s174.080-389.12 389.12-389.12 389.12 174.080 389.12 389.12-174.080 389.12-389.12 389.12zM512 99.84c-192.512 0-348.16 155.648-348.16 348.16s155.648 348.16 348.16 348.16 348.16-155.648 348.16-348.16-155.648-348.16-348.16-348.16zM409.6 417.28c-39.936 0-71.68-31.744-71.68-71.68s31.744-71.68 71.68-71.68 71.68 31.744 71.68 71.68-31.744 71.68-71.68 71.68zM409.6 314.88c-17.408 0-30.72 14.336-30.72 30.72 0 17.408 13.312 30.72 30.72 30.72s30.72-13.312 30.72-30.72c0-16.384-13.312-30.72-30.72-30.72zM409.6 622.080c-39.936 0-71.68-31.744-71.68-71.68s31.744-71.68 71.68-71.68 71.68 31.744 71.68 71.68-31.744 71.68-71.68 71.68zM409.6 519.68c-17.408 0-30.72 14.336-30.72 30.72 0 17.408 13.312 30.72 30.72 30.72s30.72-13.312 30.72-30.72c0-16.384-13.312-30.72-30.72-30.72zM614.4 417.28c-39.936 0-71.68-31.744-71.68-71.68s31.744-71.68 71.68-71.68 71.68 31.744 71.68 71.68-31.744 71.68-71.68 71.68zM614.4 314.88c-17.408 0-30.72 14.336-30.72 30.72 0 17.408 13.312 30.72 30.72 30.72s30.72-13.312 30.72-30.72c0-16.384-13.312-30.72-30.72-30.72zM614.4 622.080c-39.936 0-71.68-31.744-71.68-71.68s31.744-71.68 71.68-71.68 71.68 31.744 71.68 71.68-31.744 71.68-71.68 71.68zM614.4 519.68c-17.408 0-30.72 14.336-30.72 30.72 0 17.408 13.312 30.72 30.72 30.72s30.72-13.312 30.72-30.72c0-16.384-13.312-30.72-30.72-30.72z" />
<glyph unicode="&#x50;" d="M512 878.080c-157.696 0-286.72-126.976-286.72-283.648 0-332.8 262.144-562.176 273.408-571.392 4.096-3.072 8.192-5.12 13.312-5.12s9.216 2.048 13.312 5.12c11.264 9.216 273.408 238.592 273.408 571.392 0 156.672-129.024 283.648-286.72 283.648zM512 66.048c-53.248 51.2-245.76 256-245.76 528.384 0 134.144 110.592 242.688 245.76 242.688s245.76-108.544 245.76-242.688c0-272.384-192.512-477.184-245.76-528.384zM512 755.2c-90.112 0-163.84-73.728-163.84-163.84s73.728-163.84 163.84-163.84 163.84 73.728 163.84 163.84c0 90.112-73.728 163.84-163.84 163.84zM512 468.48c-67.584 0-122.88 55.296-122.88 122.88s55.296 122.88 122.88 122.88 122.88-55.296 122.88-122.88-55.296-122.88-122.88-122.88z" />
<glyph unicode="&#x51;" d="M880.64 632.32h-185.344c-10.24 92.16-88.064 163.84-183.296 163.84s-173.056-71.68-183.296-163.84h-185.344c-11.264 0-20.48-9.216-20.48-20.48v-491.52c0-11.264 9.216-20.48 20.48-20.48h737.28c11.264 0 20.48 9.216 20.48 20.48v491.52c0 11.264-9.216 20.48-20.48 20.48zM675.84 488.96c11.264 0 20.48-9.216 20.48-20.48s-9.216-20.48-20.48-20.48-20.48 9.216-20.48 20.48c0 11.264 9.216 20.48 20.48 20.48zM512 755.2c71.68 0 132.096-53.248 141.312-122.88h-282.624c9.216 69.632 69.632 122.88 141.312 122.88zM348.16 488.96c11.264 0 20.48-9.216 20.48-20.48s-9.216-20.48-20.48-20.48-20.48 9.216-20.48 20.48c0 11.264 9.216 20.48 20.48 20.48zM860.16 140.8h-696.32v450.56h163.84v-64.512c-23.552-8.192-40.96-30.72-40.96-58.368 0-33.792 27.648-61.44 61.44-61.44s61.44 27.648 61.44 61.44c0 26.624-17.408 49.152-40.96 58.368v64.512h286.72v-64.512c-23.552-8.192-40.96-30.72-40.96-58.368 0-33.792 27.648-61.44 61.44-61.44s61.44 27.648 61.44 61.44c0 26.624-17.408 49.152-40.96 58.368v64.512h163.84v-450.56z" />
<glyph unicode="&#x52;" d="M443.392 534.016c-2.048-9.216-10.24-15.36-19.456-15.36-2.048 0-3.072 0-5.12 1.024l-201.728 51.2c-11.264 3.072-17.408 14.336-14.336 24.576 3.072 11.264 14.336 17.408 24.576 14.336l201.728-52.224c10.24-2.048 17.408-13.312 14.336-23.552zM428.032 421.376l-201.728 52.224c-11.264 3.072-22.528-4.096-24.576-14.336-3.072-11.264 4.096-22.528 14.336-24.576l201.728-52.224c2.048 0 3.072-1.024 5.12-1.024 9.216 0 17.408 6.144 19.456 15.36 4.096 10.24-3.072 21.504-14.336 24.576zM367.616 301.568l-141.312 36.864c-11.264 3.072-22.528-4.096-24.576-14.336-3.072-11.264 4.096-22.528 14.336-24.576l141.312-36.864c2.048 0 3.072-1.024 5.12-1.024 9.216 0 17.408 6.144 19.456 15.36 4.096 11.264-3.072 21.504-14.336 24.576zM911.36 744.96v-537.6c0-9.216-6.144-17.408-15.36-19.456l-378.88-97.28c-2.048-1.024-3.072-1.024-5.12-1.024s-3.072 0-5.12 1.024l-378.88 97.28c-9.216 2.048-15.36 10.24-15.36 19.456v537.6c0 6.144 3.072 12.288 8.192 16.384s11.264 5.12 17.408 4.096l373.76-97.28 373.76 96.256c6.144 2.048 12.288 0 17.408-4.096 5.12-3.072 8.192-9.216 8.192-15.36zM491.52 631.296l-337.92 87.040v-494.592l337.92-87.040v494.592zM870.4 718.336l-337.92-87.040v-494.592l337.92 87.040v494.592zM822.272 595.456c-3.072 11.264-14.336 17.408-24.576 14.336l-201.728-52.224c-11.264-3.072-17.408-14.336-14.336-24.576 2.048-9.216 10.24-15.36 19.456-15.36 2.048 0 3.072 0 5.12 1.024l200.704 52.224c11.264 3.072 18.432 14.336 15.36 24.576zM822.272 458.24c-3.072 11.264-14.336 17.408-24.576 14.336l-201.728-52.224c-11.264-3.072-17.408-14.336-14.336-24.576 2.048-9.216 10.24-15.36 19.456-15.36 2.048 0 3.072 0 5.12 1.024l201.728 52.224c10.24 3.072 17.408 14.336 14.336 24.576zM761.856 307.712c-3.072 11.264-14.336 17.408-24.576 14.336l-141.312-36.864c-11.264-3.072-17.408-14.336-14.336-24.576 2.048-9.216 10.24-15.36 19.456-15.36 2.048 0 3.072 0 5.12 1.024l141.312 35.84c10.24 4.096 17.408 14.336 14.336 25.6z" />
<glyph unicode="&#x53;" d="M317.44 588.288v23.552c0 11.264-9.216 20.48-20.48 20.48s-20.48-9.216-20.48-20.48v-23.552c-29.696-9.216-51.2-35.84-51.2-68.608s21.504-59.392 51.2-68.608v-166.912c0-11.264 9.216-20.48 20.48-20.48s20.48 9.216 20.48 20.48v166.912c29.696 9.216 51.2 35.84 51.2 68.608s-21.504 59.392-51.2 68.608zM296.96 488.96c-17.408 0-30.72 14.336-30.72 30.72 0 17.408 13.312 30.72 30.72 30.72s30.72-13.312 30.72-30.72c0-16.384-13.312-30.72-30.72-30.72zM532.48 444.928v166.912c0 11.264-9.216 20.48-20.48 20.48s-20.48-9.216-20.48-20.48v-166.912c-29.696-9.216-51.2-35.84-51.2-68.608s21.504-59.392 51.2-68.608v-23.552c0-11.264 9.216-20.48 20.48-20.48s20.48 9.216 20.48 20.48v23.552c29.696 9.216 51.2 35.84 51.2 68.608s-21.504 59.392-51.2 68.608zM512 345.6c-17.408 0-30.72 14.336-30.72 30.72 0 17.408 13.312 30.72 30.72 30.72s30.72-13.312 30.72-30.72c0-16.384-13.312-30.72-30.72-30.72zM747.52 526.848v84.992c0 11.264-9.216 20.48-20.48 20.48s-20.48-9.216-20.48-20.48v-84.992c-29.696-9.216-51.2-35.84-51.2-68.608s21.504-59.392 51.2-68.608v-105.472c0-11.264 9.216-20.48 20.48-20.48s20.48 9.216 20.48 20.48v105.472c29.696 9.216 51.2 35.84 51.2 68.608s-21.504 59.392-51.2 68.608zM727.040 427.52c-17.408 0-30.72 14.336-30.72 30.72 0 17.408 13.312 30.72 30.72 30.72s30.72-13.312 30.72-30.72c0-16.384-13.312-30.72-30.72-30.72zM901.12 755.2h-778.24c-11.264 0-20.48-9.216-20.48-20.48v-573.44c0-11.264 9.216-20.48 20.48-20.48h778.24c11.264 0 20.48 9.216 20.48 20.48v573.44c0 11.264-9.216 20.48-20.48 20.48zM880.64 181.76h-737.28v532.48h737.28v-532.48z" />
<glyph unicode="&#x54;" d="M901.12 468.48h-62.464c-10.24 163.84-142.336 295.936-306.176 306.176v62.464c0 11.264-9.216 20.48-20.48 20.48s-20.48-9.216-20.48-20.48v-62.464c-164.864-10.24-295.936-142.336-306.176-306.176h-62.464c-11.264 0-20.48-9.216-20.48-20.48s9.216-20.48 20.48-20.48h62.464c10.24-163.84 142.336-295.936 306.176-306.176v-62.464c0-11.264 9.216-20.48 20.48-20.48s20.48 9.216 20.48 20.48v62.464c164.864 10.24 295.936 142.336 306.176 306.176h62.464c11.264 0 20.48 9.216 20.48 20.48s-9.216 20.48-20.48 20.48zM737.28 427.52h60.416c-10.24-141.312-123.904-254.976-265.216-265.216v60.416c0 11.264-9.216 20.48-20.48 20.48s-20.48-9.216-20.48-20.48v-60.416c-141.312 10.24-254.976 123.904-265.216 265.216h60.416c11.264 0 20.48 9.216 20.48 20.48s-9.216 20.48-20.48 20.48h-60.416c10.24 142.336 123.904 254.976 265.216 265.216v-60.416c0-11.264 9.216-20.48 20.48-20.48s20.48 9.216 20.48 20.48v60.416c141.312-10.24 254.976-123.904 265.216-265.216h-60.416c-11.264 0-20.48-9.216-20.48-20.48s9.216-20.48 20.48-20.48z" />
<glyph unicode="&#x55;" d="M800.768 364.032c29.696 24.576 49.152 63.488 49.152 104.448 0 70.656-57.344 133.12-122.88 133.12s-122.88-62.464-122.88-133.12c0-40.96 19.456-79.872 49.152-104.448-13.312-5.12-25.6-10.24-37.888-17.408-38.912 46.080-90.112 81.92-149.504 99.328 45.056 31.744 76.8 86.016 76.8 145.408 0 93.184-76.8 174.080-163.84 174.080s-163.84-80.896-163.84-174.080c0-59.392 31.744-113.664 76.8-145.408-126.976-37.888-220.16-155.648-220.16-294.912 0-11.264 9.216-20.48 20.48-20.48h839.68c11.264 0 20.48 9.216 20.48 20.48 0 98.304-63.488 182.272-151.552 212.992zM645.12 468.48c0 43.008 35.84 92.16 81.92 92.16s81.92-49.152 81.92-92.16c0-43.008-35.84-92.16-81.92-92.16s-81.92 49.152-81.92 92.16zM256 591.36c0 62.464 52.224 133.12 122.88 133.12s122.88-70.656 122.88-133.12-52.224-133.12-122.88-133.12-122.88 70.656-122.88 133.12zM113.664 171.52c10.24 137.216 125.952 245.76 265.216 245.76s254.976-108.544 265.216-245.76h-530.432zM685.056 171.52c-3.072 51.2-19.456 100.352-46.080 141.312 26.624 14.336 56.32 22.528 88.064 22.528 94.208 0 173.056-71.68 183.296-163.84h-225.28z" />
<glyph unicode="&#x56;" d="M900.096 679.424c-1.024 2.048-2.048 5.12-3.072 6.144-2.048 2.048-4.096 4.096-6.144 5.12s-6.144 3.072-8.192 3.072c-2.048 0-5.12 0-7.168-1.024s-4.096-1.024-5.12-3.072l-174.080-111.616v33.792c0 45.056-36.864 81.92-81.92 81.92h-409.6c-45.056 0-81.92-36.864-81.92-81.92v-327.68c0-45.056 36.864-81.92 81.92-81.92h409.6c45.056 0 81.92 36.864 81.92 81.92v33.792l173.056-111.616c2.048-1.024 3.072-2.048 5.12-3.072 2.048 0 4.096-1.024 6.144-1.024 1.024 0 1.024 0 2.048 0 3.072 0 6.144 1.024 8.192 2.048s4.096 3.072 6.144 5.12c1.024 2.048 3.072 4.096 3.072 6.144 1.024 3.072 1.024 5.12 1.024 7.168v450.56c0 2.048 0 4.096-1.024 6.144zM655.36 284.16c0-22.528-18.432-40.96-40.96-40.96h-409.6c-22.528 0-40.96 18.432-40.96 40.96v327.68c0 22.528 18.432 40.96 40.96 40.96h409.6c22.528 0 40.96-18.432 40.96-40.96v-327.68zM860.16 260.608l-163.84 105.472v163.84l163.84 105.472v-374.784z" />
<glyph unicode="&#x57;" d="M811.008 625.152l-226.304 226.304c-1.024 1.024-3.072 2.048-4.096 3.072 0 0-1.024 0-1.024 1.024-1.024 1.024-3.072 1.024-5.12 2.048v0c-1.024 0-2.048 0-4.096 0h-345.088c-11.264 0-20.48-9.216-20.48-20.48v-778.24c0-11.264 9.216-20.48 20.48-20.48h573.44c11.264 0 20.48 9.216 20.48 20.48v547.84c0 1.024 0 1.024 0 2.048 0 7.168-3.072 12.288-8.192 16.384zM590.848 787.968l158.72-158.72h-158.72v158.72zM778.24 79.36h-532.48v737.28h304.128v-207.872c0-11.264 9.216-20.48 20.48-20.48h207.872v-508.928z" />
<glyph unicode="&#x58;" d="M894.976 370.176c8.192-8.192 8.192-20.48 0-28.672-4.096-4.096-9.216-6.144-14.336-6.144s-10.24 2.048-14.336 6.144l-77.824 77.824-77.824-77.824c-4.096-4.096-9.216-6.144-14.336-6.144s-10.24 2.048-14.336 6.144c-8.192 8.192-8.192 20.48 0 28.672l77.824 77.824-77.824 77.824c-8.192 8.192-8.192 20.48 0 28.672s20.48 8.192 28.672 0l77.824-77.824 77.824 77.824c8.192 8.192 20.48 8.192 28.672 0s8.192-20.48 0-28.672l-77.824-77.824 77.824-77.824zM614.4 796.16v-696.32c0-8.192-5.12-15.36-12.288-18.432-3.072-2.048-5.12-2.048-8.192-2.048-5.12 0-10.24 2.048-14.336 6.144l-188.416 188.416h-247.808c-11.264 0-20.48 9.216-20.48 20.48v307.2c0 11.264 9.216 20.48 20.48 20.48h247.808l188.416 188.416c6.144 6.144 14.336 7.168 22.528 4.096 7.168-3.072 12.288-10.24 12.288-18.432zM378.88 581.12h-215.040v-266.24h215.040v266.24zM573.44 747.008l-153.6-153.6v-289.792l153.6-153.6v596.992z" />
<glyph unicode="&#x59;" d="M894.976 164.352l-193.536 193.536c76.8 121.856 62.464 284.672-43.008 389.12-57.344 58.368-136.192 90.112-220.16 90.112s-166.912-33.792-225.28-92.16c-58.368-59.392-90.112-137.216-90.112-221.184 0-82.944 33.792-161.792 92.16-221.184 59.392-59.392 139.264-92.16 223.232-92.16 29.696 0 58.368 4.096 86.016 12.288s54.272 19.456 78.848 34.816l192.512-192.512c4.096-4.096 9.216-6.144 14.336-6.144s10.24 2.048 14.336 6.144l70.656 70.656c8.192 8.192 8.192 20.48 0 28.672zM438.272 251.392c-73.728 0-142.336 28.672-194.56 80.896-51.2 51.2-79.872 119.808-80.896 192.512 0 72.704 27.648 140.288 78.848 191.488s122.88 80.896 196.608 80.896c72.704 0 141.312-27.648 192.512-78.848 104.448-104.448 103.424-282.624-2.048-389.12-51.2-50.176-118.784-77.824-190.464-77.824zM809.984 108.032l-174.080 174.080c7.168 6.144 14.336 12.288 20.48 19.456 7.168 7.168 14.336 15.36 21.504 23.552l174.080-174.080-41.984-43.008z" />
<glyph unicode="&#x5a;" d="M921.6 448c0-88.064-25.6-173.056-74.752-246.784-4.096-6.144-10.24-9.216-17.408-9.216-4.096 0-8.192 1.024-11.264 3.072-9.216 6.144-12.288 18.432-6.144 28.672 45.056 66.56 68.608 144.384 68.608 224.256s-23.552 157.696-67.584 224.256c-6.144 9.216-4.096 22.528 6.144 28.672 9.216 6.144 22.528 3.072 28.672-6.144 48.128-73.728 73.728-158.72 73.728-246.784zM817.152 448c0-59.392-15.36-118.784-45.056-172.032-4.096-6.144-10.24-10.24-17.408-10.24-3.072 0-7.168 1.024-10.24 3.072-10.24 5.12-13.312 18.432-8.192 27.648 26.624 46.080 39.936 98.304 39.936 151.552s-13.312 105.472-39.936 151.552c-5.12 10.24-2.048 22.528 8.192 27.648s22.528 2.048 27.648-8.192c29.696-52.224 45.056-110.592 45.056-171.008zM712.704 448c0-32.768-6.144-63.488-18.432-93.184-3.072-8.192-11.264-12.288-18.432-12.288-2.048 0-5.12 0-8.192 1.024-10.24 4.096-15.36 16.384-11.264 26.624 10.24 24.576 15.36 50.176 15.36 77.824s-5.12 53.248-15.36 77.824c-4.096 10.24 1.024 22.528 11.264 26.624s22.528-1.024 26.624-11.264c12.288-29.696 18.432-60.416 18.432-93.184zM593.92 796.16v-696.32c0-8.192-5.12-15.36-12.288-18.432-3.072-2.048-5.12-2.048-8.192-2.048-5.12 0-10.24 2.048-14.336 6.144l-188.416 188.416h-247.808c-11.264 0-20.48 9.216-20.48 20.48v307.2c0 11.264 9.216 20.48 20.48 20.48h247.808l188.416 188.416c6.144 6.144 14.336 8.192 22.528 4.096 7.168-3.072 12.288-10.24 12.288-18.432zM358.4 581.12h-215.040v-266.24h215.040v266.24zM552.96 747.008l-153.6-153.6v-289.792l153.6-153.6v596.992z" />
<glyph unicode="&#x5e;" d="M695.296 375.296c-8.192-8.192-20.48-8.192-28.672 0l-150.528 150.528-158.72-158.72c-4.096-4.096-9.216-6.144-14.336-6.144s-10.24 2.048-14.336 6.144c-8.192 8.192-8.192 20.48 0 28.672l173.056 174.080c8.192 8.192 21.504 8.192 28.672 0l164.864-164.864c8.192-8.192 8.192-21.504 0-29.696zM901.12 448c0-215.040-174.080-389.12-389.12-389.12s-389.12 174.080-389.12 389.12 174.080 389.12 389.12 389.12 389.12-174.080 389.12-389.12zM860.16 448c0 192.512-155.648 348.16-348.16 348.16s-348.16-155.648-348.16-348.16 155.648-348.16 348.16-348.16 348.16 155.648 348.16 348.16z" />
<glyph unicode="&#x5f;" d="M829.44 719.36h-204.8v66.56c0 11.264-9.216 20.48-20.48 20.48h-184.32c-11.264 0-20.48-9.216-20.48-20.48v-66.56h-204.8c-11.264 0-20.48-9.216-20.48-20.48s9.216-20.48 20.48-20.48h67.584v-568.32c0-11.264 9.216-20.48 20.48-20.48h458.752c11.264 0 20.48 9.216 20.48 20.48v568.32h67.584c11.264 0 20.48 9.216 20.48 20.48s-9.216 20.48-20.48 20.48zM440.32 765.44h143.36v-40.96h-143.36v40.96zM720.896 130.56h-417.792v547.84h417.792v-547.84zM624.64 567.808v-327.68c0-11.264-9.216-20.48-20.48-20.48s-20.48 9.216-20.48 20.48v327.68c0 11.264 9.216 20.48 20.48 20.48s20.48-8.192 20.48-20.48zM440.32 567.808v-327.68c0-11.264-9.216-20.48-20.48-20.48s-20.48 9.216-20.48 20.48v327.68c0 11.264 9.216 20.48 20.48 20.48s20.48-8.192 20.48-20.48z" />
<glyph unicode="&#x60;" d="M642.048 724.48h-266.24c-150.528 0-273.408-123.904-273.408-276.48s122.88-276.48 273.408-276.48h266.24c154.624 0 279.552 123.904 279.552 276.48s-124.928 276.48-279.552 276.48zM642.048 212.48h-266.24c-128 0-232.448 105.472-232.448 235.52s104.448 235.52 232.448 235.52h266.24c129.024 0 238.592-107.52 238.592-235.52s-109.568-235.52-238.592-235.52zM643.072 642.56c-106.496 0-192.512-87.040-192.512-194.56s86.016-194.56 192.512-194.56c108.544 0 196.608 87.040 196.608 194.56s-88.064 194.56-196.608 194.56zM643.072 294.4c-82.944 0-151.552 68.608-151.552 153.6s68.608 153.6 151.552 153.6c84.992 0 155.648-70.656 155.648-153.6s-71.68-153.6-155.648-153.6z" />
<glyph unicode="&#x61;" d="M337.92 28.16c-54.272 0-106.496 21.504-144.384 60.416-79.872 79.872-79.872 209.92 0 289.792l453.632 448.512c25.6 25.6 62.464 40.96 100.352 40.96s74.752-15.36 101.376-41.984c56.32-56.32 56.32-146.432 0-202.752l-453.632-448.512c-15.36-15.36-35.84-23.552-57.344-23.552s-41.984 8.192-58.368 23.552c-31.744 31.744-31.744 83.968 0 115.712l228.352 223.232c8.192 8.192 21.504 8.192 28.672 0 8.192-8.192 8.192-21.504 0-28.672l-227.328-223.232c-15.36-15.36-15.36-41.984 0-57.344 8.192-8.192 18.432-12.288 28.672-12.288 11.264 0 21.504 4.096 28.672 12.288l453.632 448.512c39.936 39.936 39.936 104.448 0 144.384-19.456 19.456-45.056 29.696-72.704 29.696s-53.248-10.24-72.704-29.696l-452.608-448.512c-63.488-63.488-63.488-167.936 0-231.424 30.72-30.72 71.68-48.128 115.712-48.128s84.992 17.408 115.712 48.128l392.192 387.072c8.192 8.192 21.504 8.192 28.672 0 8.192-8.192 8.192-21.504 0-28.672l-392.192-388.096c-37.888-37.888-90.112-59.392-144.384-59.392z" />
<glyph unicode="&#x62;" d="M880.64 673.28h-256v61.44c0 11.264-9.216 20.48-20.48 20.48h-184.32c-11.264 0-20.48-9.216-20.48-20.48v-61.44h-256c-11.264 0-20.48-9.216-20.48-20.48v-491.52c0-11.264 9.216-20.48 20.48-20.48h737.28c11.264 0 20.48 9.216 20.48 20.48v491.52c0 11.264-9.216 20.48-20.48 20.48zM440.32 714.24h143.36v-40.96h-143.36v40.96zM860.16 181.76h-696.32v204.8h286.72v-71.68c0-11.264 9.216-20.48 20.48-20.48h81.92c11.264 0 20.48 9.216 20.48 20.48v71.68h286.72v-204.8zM491.52 335.36v143.36h40.96v-143.36h-40.96zM860.16 427.52h-286.72v71.68c0 11.264-9.216 20.48-20.48 20.48h-81.92c-11.264 0-20.48-9.216-20.48-20.48v-71.68h-286.72v204.8h696.32v-204.8z" />
<glyph unicode="&#x63;" d="M839.68 724.48h-81.92v40.96c0 11.264-9.216 20.48-20.48 20.48s-20.48-9.216-20.48-20.48v-40.96h-409.6v40.96c0 11.264-9.216 20.48-20.48 20.48s-20.48-9.216-20.48-20.48v-40.96h-81.92c-45.056 0-81.92-36.864-81.92-81.92v-450.56c0-45.056 36.864-81.92 81.92-81.92h655.36c45.056 0 81.92 36.864 81.92 81.92v450.56c0 45.056-36.864 81.92-81.92 81.92zM880.64 192c0-22.528-18.432-40.96-40.96-40.96h-655.36c-22.528 0-40.96 18.432-40.96 40.96v307.2h737.28v-307.2zM880.64 540.16h-737.28v102.4c0 22.528 18.432 40.96 40.96 40.96h81.92v-61.44c0-11.264 9.216-20.48 20.48-20.48s20.48 9.216 20.48 20.48v61.44h409.6v-61.44c0-11.264 9.216-20.48 20.48-20.48s20.48 9.216 20.48 20.48v61.44h81.92c22.528 0 40.96-18.432 40.96-40.96v-102.4z" />
<glyph unicode="&#x64;" d="M695.296 499.2l-173.056-173.056c-4.096-4.096-9.216-6.144-14.336-6.144s-10.24 2.048-14.336 6.144l-164.864 164.864c-8.192 8.192-8.192 20.48 0 28.672s20.48 8.192 28.672 0l150.528-150.528 158.72 158.72c8.192 8.192 20.48 8.192 28.672 0 8.192-7.168 8.192-20.48 0-28.672zM901.12 448c0-215.040-174.080-389.12-389.12-389.12s-389.12 174.080-389.12 389.12 174.080 389.12 389.12 389.12 389.12-174.080 389.12-389.12zM860.16 448c0 192.512-155.648 348.16-348.16 348.16s-348.16-155.648-348.16-348.16 155.648-348.16 348.16-348.16 348.16 155.648 348.16 348.16z" />
<glyph unicode="&#x65;" d="M901.12 724.48h-778.24c-11.264 0-20.48-9.216-20.48-20.48v-512c0-11.264 9.216-20.48 20.48-20.48h778.24c11.264 0 20.48 9.216 20.48 20.48v512c0 11.264-9.216 20.48-20.48 20.48zM851.968 683.52l-339.968-339.968-339.968 339.968h679.936zM143.36 654.848l206.848-206.848-206.848-206.848v413.696zM173.056 212.48l205.824 206.848 118.784-118.784c4.096-4.096 9.216-6.144 14.336-6.144s10.24 2.048 14.336 6.144l118.784 118.784 205.824-206.848h-677.888zM880.64 241.152l-206.848 206.848 206.848 206.848v-413.696z" />
<glyph unicode="&#x66;" d="M901.12 652.8h-216.064l-94.208 96.256c-4.096 4.096-9.216 6.144-14.336 6.144h-351.232c-11.264 0-20.48-9.216-20.48-20.48v-81.92h-81.92c-11.264 0-20.48-9.216-20.48-20.48v-471.040c0-11.264 9.216-20.48 20.48-20.48h778.24c11.264 0 20.48 9.216 20.48 20.48v471.040c0 11.264-9.216 20.48-20.48 20.48zM245.76 714.24h320.512l60.416-61.44h-380.928v61.44zM880.64 181.76h-737.28v430.080h737.28v-430.080z" />
<glyph unicode="&#x67;" d="M880.64 837.12h-184.32c-11.264 0-20.48-9.216-20.48-20.48v-346.112h-143.36v141.312c0 11.264-9.216 20.48-20.48 20.48h-184.32c-11.264 0-20.48-9.216-20.48-20.48v-316.416h-163.84c-11.264 0-20.48-9.216-20.48-20.48v-195.584c0-11.264 9.216-20.48 20.48-20.48h737.28c11.264 0 20.48 9.216 20.48 20.48v737.28c0 11.264-9.216 20.48-20.48 20.48zM307.2 99.84h-143.36v154.624h143.36v-154.624zM491.52 99.84h-143.36v491.52h143.36v-491.52zM675.84 99.84h-143.36v329.728h143.36v-329.728zM860.16 99.84h-143.36v696.32h143.36v-696.32z" />
<glyph unicode="&#x68;" d="M913.408 454.144l-387.072 387.072c-7.168 8.192-21.504 8.192-28.672 0l-389.12-389.12c-6.144-6.144-7.168-14.336-4.096-22.528 3.072-7.168 10.24-12.288 18.432-12.288h102.4v-348.16c0-11.264 9.216-20.48 20.48-20.48h184.32c11.264 0 20.48 9.216 20.48 20.48v163.84h122.88v-163.84c0-11.264 9.216-20.48 20.48-20.48h184.32c11.264 0 20.48 9.216 20.48 20.48v348.16h102.4c0 0 0 0 0 0 11.264 0 20.48 9.216 20.48 20.48 0 7.168-3.072 12.288-8.192 16.384zM757.76 89.6h-143.36v163.84c0 11.264-9.216 20.48-20.48 20.48h-163.84c-11.264 0-20.48-9.216-20.48-20.48v-163.84h-143.36v327.68h491.52v-327.68zM172.032 458.24l339.968 339.968 339.968-339.968h-679.936z" />
<glyph unicode="&#x69;" d="M675.84 847.36h-327.68c-33.792 0-61.44-27.648-61.44-61.44v-675.84c0-33.792 27.648-61.44 61.44-61.44h327.68c33.792 0 61.44 27.648 61.44 61.44v675.84c0 33.792-27.648 61.44-61.44 61.44zM696.32 110.080c0-11.264-9.216-20.48-20.48-20.48h-327.68c-11.264 0-20.48 9.216-20.48 20.48v40.96h368.64v-40.96zM696.32 192h-368.64v512h368.64v-512zM696.32 744.96h-368.64v40.96c0 11.264 9.216 20.48 20.48 20.48h327.68c11.264 0 20.48-9.216 20.48-20.48v-40.96z" />
<glyph unicode="&#x6a;" d="M684.032 750.080l11.264 29.696c4.096 10.24-2.048 22.528-12.288 25.6-10.24 4.096-22.528-1.024-26.624-12.288l-11.264-28.672c-132.096 35.84-272.384-33.792-320.512-162.816l-66.56-182.272-122.88-56.32c-7.168-3.072-12.288-11.264-12.288-19.456s5.12-15.36 13.312-18.432l222.208-79.872c-9.216-51.2 20.48-104.448 72.704-122.88 51.2-18.432 108.544 3.072 135.168 48.128l222.208-79.872c0 0 0 0 0 0 10.24-4.096 22.528 2.048 26.624 12.288 2.048 6.144 1.024 12.288-2.048 17.408l-56.32 119.808 66.56 182.272c48.128 129.024-14.336 271.36-139.264 327.68zM445.44 161.28c-30.72 11.264-49.152 39.936-47.104 70.656l129.024-46.080c-18.432-25.6-52.224-35.84-81.92-24.576zM785.408 435.712l-69.632-189.44c-2.048-5.12-2.048-10.24 1.024-15.36l39.936-84.992-193.536 68.608-366.592 132.096 86.016 39.936c5.12 2.048 8.192 6.144 10.24 11.264l69.632 189.44c41.984 114.688 172.032 174.080 287.744 132.096 117.76-40.96 177.152-168.96 135.168-283.648z" />
<glyph unicode="&#x6b;" d="M849.92 560.64h-92.16c0 135.168-110.592 245.76-245.76 245.76s-245.76-110.592-245.76-245.76h-92.16c-11.264 0-20.48-9.216-20.48-20.48v-430.080c0-11.264 9.216-20.48 20.48-20.48h675.84c11.264 0 20.48 9.216 20.48 20.48v430.080c0 11.264-9.216 20.48-20.48 20.48zM512 765.44c112.64 0 204.8-92.16 204.8-204.8h-409.6c0 112.64 92.16 204.8 204.8 204.8zM829.44 130.56h-634.88v389.12h634.88v-389.12zM512 417.28c-39.936 0-71.68-31.744-71.68-71.68 0-32.768 21.504-59.392 51.2-68.608v-44.032c0-11.264 9.216-20.48 20.48-20.48s20.48 9.216 20.48 20.48v44.032c29.696 9.216 51.2 35.84 51.2 68.608 0 39.936-31.744 71.68-71.68 71.68zM512 314.88c-17.408 0-30.72 14.336-30.72 30.72 0 17.408 13.312 30.72 30.72 30.72s30.72-13.312 30.72-30.72c0-16.384-13.312-30.72-30.72-30.72z" />
<glyph unicode="&#x6c;" d="M843.776 503.296l-123.904-123.904c-8.192-8.192-20.48-8.192-28.672 0s-8.192 20.48 0 28.672l123.904 123.904c60.416 60.416 60.416 158.72 0 219.136-29.696 29.696-67.584 45.056-109.568 45.056s-79.872-16.384-109.568-45.056l-123.904-123.904c-60.416-60.416-60.416-158.72 0-219.136 14.336-14.336 31.744-26.624 51.2-33.792 10.24-4.096 15.36-16.384 11.264-26.624-3.072-8.192-11.264-12.288-19.456-12.288-3.072 0-5.12 0-8.192 1.024-24.576 10.24-46.080 24.576-64.512 43.008-75.776 75.776-75.776 200.704 0 276.48l123.904 123.904c37.888 36.864 87.040 57.344 139.264 57.344s101.376-20.48 138.24-57.344c76.8-75.776 76.8-200.704 0-276.48zM516.096 559.616c-10.24 4.096-22.528-1.024-26.624-11.264s1.024-22.528 11.264-26.624c19.456-8.192 36.864-19.456 51.2-33.792 60.416-60.416 60.416-158.72 0-219.136l-123.904-123.904c-29.696-29.696-67.584-45.056-109.568-45.056s-79.872 16.384-109.568 45.056c-60.416 60.416-60.416 158.72 0 219.136l123.904 123.904c8.192 8.192 8.192 20.48 0 28.672s-20.48 8.192-28.672 0l-123.904-123.904c-75.776-75.776-75.776-200.704 0-276.48 36.864-36.864 86.016-57.344 138.24-57.344s101.376 20.48 138.24 57.344l123.904 123.904c75.776 75.776 75.776 200.704 0 276.48-18.432 18.432-39.936 32.768-64.512 43.008z" />
<glyph unicode="&#x6d;" d="M757.76 519.68c0-11.264-9.216-20.48-20.48-20.48h-450.56c-11.264 0-20.48 9.216-20.48 20.48s9.216 20.48 20.48 20.48h450.56c11.264 0 20.48-9.216 20.48-20.48zM612.352 427.52h-325.632c-11.264 0-20.48-9.216-20.48-20.48s9.216-20.48 20.48-20.48h325.632c11.264 0 20.48 9.216 20.48 20.48s-9.216 20.48-20.48 20.48zM737.28 652.8h-450.56c-11.264 0-20.48-9.216-20.48-20.48s9.216-20.48 20.48-20.48h450.56c11.264 0 20.48 9.216 20.48 20.48s-9.216 20.48-20.48 20.48zM901.12 765.44v-491.52c0-11.264-9.216-20.48-20.48-20.48h-399.36l-139.264-137.216c-4.096-4.096-9.216-6.144-14.336-6.144-3.072 0-5.12 0-8.192 2.048-8.192 3.072-12.288 10.24-12.288 18.432v122.88h-163.84c-11.264 0-20.48 9.216-20.48 20.48v491.52c0 11.264 9.216 20.48 20.48 20.48h737.28c11.264 0 20.48-9.216 20.48-20.48zM860.16 744.96h-696.32v-450.56h163.84c11.264 0 20.48-9.216 20.48-20.48v-94.208l110.592 108.544c4.096 4.096 9.216 6.144 14.336 6.144h387.072v450.56z" />
<glyph unicode="&#x6e;" d="M798.72 857.6h-573.44c-11.264 0-20.48-9.216-20.48-20.48v-778.24c0-11.264 9.216-20.48 20.48-20.48h573.44c11.264 0 20.48 9.216 20.48 20.48v778.24c0 11.264-9.216 20.48-20.48 20.48zM778.24 79.36h-532.48v143.36h84.992c8.192-23.552 30.72-40.96 58.368-40.96 33.792 0 61.44 27.648 61.44 61.44s-27.648 61.44-61.44 61.44c-26.624 0-49.152-17.408-58.368-40.96h-84.992v163.84h84.992c8.192-23.552 30.72-40.96 58.368-40.96 33.792 0 61.44 27.648 61.44 61.44s-27.648 61.44-61.44 61.44c-26.624 0-49.152-17.408-58.368-40.96h-84.992v163.84h84.992c8.192-23.552 30.72-40.96 58.368-40.96 33.792 0 61.44 27.648 61.44 61.44s-27.648 61.44-61.44 61.44c-26.624 0-49.152-17.408-58.368-40.96h-84.992v143.36h532.48v-737.28zM368.64 243.2c0 11.264 9.216 20.48 20.48 20.48s20.48-9.216 20.48-20.48c0-11.264-9.216-20.48-20.48-20.48s-20.48 9.216-20.48 20.48zM368.64 448c0 11.264 9.216 20.48 20.48 20.48s20.48-9.216 20.48-20.48c0-11.264-9.216-20.48-20.48-20.48s-20.48 9.216-20.48 20.48zM368.64 652.8c0 11.264 9.216 20.48 20.48 20.48s20.48-9.216 20.48-20.48c0-11.264-9.216-20.48-20.48-20.48s-20.48 9.216-20.48 20.48z" />
<glyph unicode="&#x6f;" d="M512 837.12c-215.040 0-389.12-174.080-389.12-389.12s174.080-389.12 389.12-389.12 389.12 174.080 389.12 389.12-174.080 389.12-389.12 389.12zM512 99.84c-192.512 0-348.16 155.648-348.16 348.16s155.648 348.16 348.16 348.16 348.16-155.648 348.16-348.16-155.648-348.16-348.16-348.16zM512 519.68c-39.936 0-71.68-31.744-71.68-71.68s31.744-71.68 71.68-71.68 71.68 31.744 71.68 71.68-31.744 71.68-71.68 71.68zM512 417.28c-17.408 0-30.72 14.336-30.72 30.72 0 17.408 13.312 30.72 30.72 30.72s30.72-13.312 30.72-30.72c0-16.384-13.312-30.72-30.72-30.72zM716.8 519.68c-39.936 0-71.68-31.744-71.68-71.68s31.744-71.68 71.68-71.68 71.68 31.744 71.68 71.68-31.744 71.68-71.68 71.68zM716.8 417.28c-17.408 0-30.72 14.336-30.72 30.72 0 17.408 13.312 30.72 30.72 30.72s30.72-13.312 30.72-30.72c0-16.384-13.312-30.72-30.72-30.72zM307.2 519.68c-39.936 0-71.68-31.744-71.68-71.68s31.744-71.68 71.68-71.68 71.68 31.744 71.68 71.68-31.744 71.68-71.68 71.68zM307.2 417.28c-17.408 0-30.72 14.336-30.72 30.72 0 17.408 13.312 30.72 30.72 30.72s30.72-13.312 30.72-30.72c0-16.384-13.312-30.72-30.72-30.72z" />
<glyph unicode="&#x70;" d="M901.12 204.288v489.472c0 11.264-9.216 20.48-20.48 20.48h-737.28c-11.264 0-20.48-9.216-20.48-20.48v-491.52c0-1.024 0-2.048 0-3.072 0 0 0 0 0-1.024 0-2.048 1.024-3.072 1.024-5.12 0 0 0 0 0 0s0 0 0-1.024c1.024-1.024 1.024-2.048 2.048-3.072 0 0 1.024 0 1.024-1.024 1.024-1.024 2.048-2.048 4.096-3.072 0 0 1.024 0 1.024 0 1.024-1.024 2.048-1.024 4.096-2.048 0 0 1.024 0 1.024 0 2.048 0 3.072-1.024 5.12-1.024h737.28c0 0 0 0 0 0 11.264 0 20.48 9.216 20.48 20.48 1.024 1.024 1.024 1.024 1.024 2.048zM184.32 222.72l225.28 293.888 188.416-246.784c0 0 0 0 0 0l35.84-47.104h-449.536zM686.080 222.72l-46.080 60.416 76.8 100.352 121.856-160.768h-152.576zM860.16 262.656l-126.976 166.912c-4.096 5.12-10.24 8.192-16.384 8.192s-12.288-3.072-16.384-8.192l-86.016-113.664-188.416 246.784c-4.096 5.12-10.24 8.192-16.384 8.192s-12.288-3.072-16.384-8.192l-229.376-300.032v410.624h696.32v-410.624zM624.64 611.84c-39.936 0-71.68-31.744-71.68-71.68s31.744-71.68 71.68-71.68 71.68 31.744 71.68 71.68-32.768 71.68-71.68 71.68zM624.64 509.44c-16.384 0-30.72 14.336-30.72 30.72 0 17.408 13.312 30.72 30.72 30.72s30.72-13.312 30.72-30.72c0-16.384-14.336-30.72-30.72-30.72z" />
<glyph unicode="&#x71;" d="M898.048 698.88l-189.44 75.776c-1.024 0-2.048 1.024-2.048 1.024-1.024 0-1.024 0-2.048 1.024-1.024 0-1.024 0-2.048 0s-2.048 0-2.048 0-1.024 0-2.048 0-2.048 0-3.072-1.024v0l-183.296-73.728-182.272 72.704c-1.024 0-2.048 1.024-2.048 1.024-1.024 0-2.048 0-2.048 1.024-1.024 0-1.024 0-2.048 0s-2.048 0-2.048 0-1.024 0-2.048 0-2.048 0-3.072-1.024c0 0 0 0 0 0l-189.44-75.776c-8.192-3.072-13.312-10.24-13.312-19.456v-539.648c0-7.168 3.072-13.312 9.216-17.408 3.072-2.048 7.168-3.072 11.264-3.072 2.048 0 5.12 0 7.168 1.024l182.272 72.704 182.272-72.704c0 0 1.024 0 1.024 0s1.024 0 1.024 0c2.048 0 4.096-1.024 5.12-1.024s3.072 0 5.12 1.024c0 0 1.024 0 1.024 0s1.024 0 1.024 0l182.272 72.704 182.272-72.704c1.024-1.024 4.096-1.024 6.144-1.024 4.096 0 8.192 1.024 11.264 3.072 5.12 4.096 9.216 10.24 9.216 17.408v538.624c0 8.192-5.12 16.384-13.312 19.456zM302.080 229.888l-148.48-58.368v494.592l148.48 59.392v-495.616zM491.52 171.52l-148.48 59.392v494.592l148.48-59.392v-494.592zM680.96 229.888l-148.48-58.368v494.592l148.48 59.392v-495.616zM870.4 171.52l-148.48 59.392v494.592l148.48-59.392v-494.592z" />
<glyph unicode="&#x72;" d="M133.12 570.88c0-5.12 2.048-10.24 6.144-14.336l286.72-286.72c6.144-6.144 14.336-7.168 22.528-4.096 7.168 3.072 12.288 10.24 12.288 18.432v145.408c6.144 0 12.288 1.024 17.408 1.024 131.072 0 237.568-105.472 237.568-234.496 0-53.248-18.432-99.328-55.296-143.36-6.144-7.168-6.144-18.432 0-25.6 4.096-5.12 10.24-8.192 16.384-8.192 3.072 0 6.144 1.024 9.216 2.048 128 65.536 204.8 187.392 204.8 325.632 0 206.848-171.008 373.76-381.952 373.76-17.408 0-33.792-1.024-49.152-3.072v140.288c0 8.192-5.12 15.36-12.288 18.432-7.168 4.096-15.36 2.048-21.504-4.096l-286.72-286.72c-4.096-4.096-6.144-9.216-6.144-14.336zM182.272 570.88l237.568 237.568v-114.688c0-6.144 3.072-12.288 7.168-15.36 5.12-4.096 11.264-5.12 17.408-4.096 16.384 3.072 40.96 7.168 65.536 7.168 187.392-1.024 339.968-150.528 339.968-334.848 0-93.184-39.936-179.2-109.568-239.616 10.24 27.648 16.384 57.344 16.384 88.064 0 152.576-124.928 275.456-278.528 275.456-14.336 0-28.672-1.024-40.96-3.072-10.24-1.024-17.408-10.24-17.408-20.48v-114.688l-237.568 238.592z" />
<glyph unicode="&#x73;" d="M921.6 765.44h-491.52c-11.264 0-20.48-9.216-20.48-20.48v-143.36h-307.2c-11.264 0-20.48-9.216-20.48-20.48v-327.68c0-11.264 9.216-20.48 20.48-20.48h81.92v-122.88c0-8.192 5.12-15.36 12.288-18.432 3.072-2.048 5.12-2.048 8.192-2.048 5.12 0 10.24 2.048 14.336 6.144l137.216 137.216h237.568c11.264 0 20.48 9.216 20.48 20.48v143.36h54.272l137.216-137.216c4.096-4.096 9.216-6.144 14.336-6.144 3.072 0 5.12 0 8.192 2.048 7.168 3.072 12.288 10.24 12.288 18.432v122.88h80.896c11.264 0 20.48 9.216 20.48 20.48v327.68c0 11.264-9.216 20.48-20.48 20.48zM573.44 273.92h-225.28c-5.12 0-10.24-2.048-14.336-6.144l-108.544-108.544v94.208c0 11.264-9.216 20.48-20.48 20.48h-81.92v286.72h286.72v-143.36c0-11.264 9.216-20.48 20.48-20.48h143.36v-122.88zM901.12 437.76h-80.896c-11.264 0-20.48-9.216-20.48-20.48v-94.208l-108.544 108.544c-4.096 4.096-9.216 6.144-14.336 6.144h-226.304v286.72h450.56v-286.72z" />
<glyph unicode="&#x74;" d="M512 837.12c-215.040 0-389.12-174.080-389.12-389.12s174.080-389.12 389.12-389.12 389.12 174.080 389.12 389.12-174.080 389.12-389.12 389.12zM532.48 100.864v20.48c0 11.264-9.216 20.48-20.48 20.48s-20.48-9.216-20.48-20.48v-20.48c-176.128 10.24-316.416 151.552-326.656 326.656h20.48c11.264 0 20.48 9.216 20.48 20.48s-9.216 20.48-20.48 20.48h-20.48c10.24 176.128 151.552 316.416 326.656 326.656v-20.48c0-11.264 9.216-20.48 20.48-20.48s20.48 9.216 20.48 20.48v20.48c176.128-10.24 316.416-151.552 326.656-326.656h-20.48c-11.264 0-20.48-9.216-20.48-20.48s9.216-20.48 20.48-20.48h20.48c-10.24-176.128-150.528-316.416-326.656-326.656zM634.88 325.12c-4.096-4.096-9.216-6.144-14.336-6.144s-10.24 2.048-14.336 6.144l-108.544 108.544c-1.024 1.024-2.048 2.048-2.048 3.072 0 0 0 0 0 0-1.024 1.024-1.024 2.048-2.048 3.072 0 0 0 0 0 0-1.024 1.024-1.024 2.048-1.024 4.096 0 0 0 0 0 0 0 1.024 0 2.048 0 4.096v245.76c0 11.264 9.216 20.48 20.48 20.48s20.48-9.216 20.48-20.48v-237.568l102.4-102.4c7.168-8.192 7.168-20.48-1.024-28.672z" />
<glyph unicode="&#x75;" d="M607.232 425.472c66.56 40.96 109.568 121.856 109.568 196.608 0 106.496-87.040 225.28-204.8 225.28s-204.8-118.784-204.8-225.28c0-74.752 43.008-155.648 109.568-196.608-157.696-41.984-273.408-186.368-273.408-356.352 0-11.264 9.216-20.48 20.48-20.48h696.32c11.264 0 20.48 9.216 20.48 20.48 0 169.984-115.712 314.368-273.408 356.352zM348.16 622.080c0 105.472 87.040 184.32 163.84 184.32s163.84-78.848 163.84-184.32-87.040-184.32-163.84-184.32-163.84 78.848-163.84 184.32zM185.344 89.6c10.24 171.008 153.6 307.2 326.656 307.2s316.416-136.192 326.656-307.2h-653.312z" />
<glyph unicode="&#x76;" d="M880.64 714.24h-737.28c-11.264 0-20.48-9.216-20.48-20.48v-491.52c0-11.264 9.216-20.48 20.48-20.48h737.28c11.264 0 20.48 9.216 20.48 20.48v491.52c0 11.264-9.216 20.48-20.48 20.48zM266.24 222.72h-102.4v81.92h102.4v-81.92zM266.24 345.6h-102.4v81.92h102.4v-81.92zM266.24 468.48h-102.4v81.92h102.4v-81.92zM266.24 591.36h-102.4v81.92h102.4v-81.92zM716.8 222.72h-409.6v450.56h409.6v-450.56zM860.16 222.72h-102.4v81.92h102.4v-81.92zM860.16 345.6h-102.4v81.92h102.4v-81.92zM860.16 468.48h-102.4v81.92h102.4v-81.92zM860.16 591.36h-102.4v81.92h102.4v-81.92z" />
<glyph unicode="&#x77;" d="M901.12 755.2h-778.24c-11.264 0-20.48-9.216-20.48-20.48v-573.44c0-11.264 9.216-20.48 20.48-20.48h778.24c11.264 0 20.48 9.216 20.48 20.48v573.44c0 11.264-9.216 20.48-20.48 20.48zM880.64 181.76h-737.28v409.6h737.28v-409.6zM880.64 632.32h-737.28v81.92h737.28v-81.92zM307.2 673.28c0-11.264-9.216-20.48-20.48-20.48h-102.4c-11.264 0-20.48 9.216-20.48 20.48s9.216 20.48 20.48 20.48h102.4c11.264 0 20.48-9.216 20.48-20.48z" />
<glyph unicode="&#x78;" d="M540.672 448l129.024 129.024c8.192 8.192 8.192 20.48 0 28.672s-20.48 8.192-28.672 0l-129.024-129.024-129.024 129.024c-8.192 8.192-20.48 8.192-28.672 0s-8.192-20.48 0-28.672l129.024-129.024-129.024-129.024c-8.192-8.192-8.192-20.48 0-28.672 4.096-4.096 9.216-6.144 14.336-6.144s10.24 2.048 14.336 6.144l129.024 129.024 129.024-129.024c4.096-4.096 9.216-6.144 14.336-6.144s10.24 2.048 14.336 6.144c8.192 8.192 8.192 20.48 0 28.672l-129.024 129.024zM540.672 448l129.024 129.024c8.192 8.192 8.192 20.48 0 28.672s-20.48 8.192-28.672 0l-129.024-129.024-129.024 129.024c-8.192 8.192-20.48 8.192-28.672 0s-8.192-20.48 0-28.672l129.024-129.024-129.024-129.024c-8.192-8.192-8.192-20.48 0-28.672 4.096-4.096 9.216-6.144 14.336-6.144s10.24 2.048 14.336 6.144l129.024 129.024 129.024-129.024c4.096-4.096 9.216-6.144 14.336-6.144s10.24 2.048 14.336 6.144c8.192 8.192 8.192 20.48 0 28.672l-129.024 129.024zM540.672 448l129.024 129.024c8.192 8.192 8.192 20.48 0 28.672s-20.48 8.192-28.672 0l-129.024-129.024-129.024 129.024c-8.192 8.192-20.48 8.192-28.672 0s-8.192-20.48 0-28.672l129.024-129.024-129.024-129.024c-8.192-8.192-8.192-20.48 0-28.672 4.096-4.096 9.216-6.144 14.336-6.144s10.24 2.048 14.336 6.144l129.024 129.024 129.024-129.024c4.096-4.096 9.216-6.144 14.336-6.144s10.24 2.048 14.336 6.144c8.192 8.192 8.192 20.48 0 28.672l-129.024 129.024zM512 837.12c-215.040 0-389.12-174.080-389.12-389.12s174.080-389.12 389.12-389.12 389.12 174.080 389.12 389.12-174.080 389.12-389.12 389.12zM512 99.84c-192.512 0-348.16 155.648-348.16 348.16s155.648 348.16 348.16 348.16 348.16-155.648 348.16-348.16-155.648-348.16-348.16-348.16zM669.696 605.696c-8.192 8.192-20.48 8.192-28.672 0l-129.024-129.024-129.024 129.024c-8.192 8.192-20.48 8.192-28.672 0s-8.192-20.48 0-28.672l129.024-129.024-129.024-129.024c-8.192-8.192-8.192-20.48 0-28.672 4.096-4.096 9.216-6.144 14.336-6.144s10.24 2.048 14.336 6.144l129.024 129.024 129.024-129.024c4.096-4.096 9.216-6.144 14.336-6.144s10.24 2.048 14.336 6.144c8.192 8.192 8.192 20.48 0 28.672l-129.024 129.024 129.024 129.024c8.192 8.192 8.192 20.48 0 28.672zM540.672 448l129.024 129.024c8.192 8.192 8.192 20.48 0 28.672s-20.48 8.192-28.672 0l-129.024-129.024-129.024 129.024c-8.192 8.192-20.48 8.192-28.672 0s-8.192-20.48 0-28.672l129.024-129.024-129.024-129.024c-8.192-8.192-8.192-20.48 0-28.672 4.096-4.096 9.216-6.144 14.336-6.144s10.24 2.048 14.336 6.144l129.024 129.024 129.024-129.024c4.096-4.096 9.216-6.144 14.336-6.144s10.24 2.048 14.336 6.144c8.192 8.192 8.192 20.48 0 28.672l-129.024 129.024z" />
<glyph unicode="&#x79;" d="M843.776 711.168l-100.352 100.352c-4.096 4.096-9.216 6.144-14.336 6.144h-534.528c-11.264 0-20.48-9.216-20.48-20.48v-696.32c0-11.264 9.216-20.48 20.48-20.48h634.88c11.264 0 20.48 9.216 20.48 20.48v594.944c0 6.144-2.048 11.264-6.144 15.36zM317.44 775.68h389.12v-327.68h-389.12v327.68zM808.96 120.32h-593.92v655.36h61.44v-348.16c0-11.264 9.216-20.48 20.48-20.48h430.080c11.264 0 20.48 9.216 20.48 20.48v321.536l61.44-61.44v-567.296zM663.552 709.12v-194.56c0-11.264-9.216-20.48-20.48-20.48s-20.48 9.216-20.48 20.48v194.56c0 11.264 9.216 20.48 20.48 20.48s20.48-9.216 20.48-20.48z" />
<glyph unicode="&#x7a;" d="M358.4 284.16h-204.8c-11.264 0-20.48-9.216-20.48-20.48v-122.88c0-11.264 9.216-20.48 20.48-20.48h204.8c11.264 0 20.48 9.216 20.48 20.48v122.88c0 11.264-9.216 20.48-20.48 20.48zM337.92 161.28h-163.84v81.92h163.84v-81.92zM358.4 529.92h-204.8c-11.264 0-20.48-9.216-20.48-20.48v-122.88c0-11.264 9.216-20.48 20.48-20.48h204.8c11.264 0 20.48 9.216 20.48 20.48v122.88c0 11.264-9.216 20.48-20.48 20.48zM337.92 407.040h-163.84v81.92h163.84v-81.92zM358.4 775.68h-204.8c-11.264 0-20.48-9.216-20.48-20.48v-122.88c0-11.264 9.216-20.48 20.48-20.48h204.8c11.264 0 20.48 9.216 20.48 20.48v122.88c0 11.264-9.216 20.48-20.48 20.48zM337.92 652.8h-163.84v81.92h163.84v-81.92zM796.672 644.608c-8.192 8.192-16.384 15.36-25.6 21.504l76.8 73.728c6.144 6.144 8.192 14.336 5.12 22.528s-10.24 12.288-18.432 12.288h-339.968c-11.264 0-20.48-9.216-20.48-20.48v-324.608c0-8.192 5.12-15.36 12.288-18.432s16.384-2.048 22.528 4.096l82.944 78.848c2.048-2.048 5.12-4.096 7.168-7.168 35.84-33.792 56.32-79.872 56.32-129.024s-19.456-95.232-56.32-129.024c-31.744-30.72-74.752-49.152-119.808-53.248-10.24-1.024-17.408-8.192-18.432-18.432s5.12-18.432 14.336-21.504c31.744-9.216 63.488-14.336 96.256-14.336 41.984 0 83.968 8.192 121.856 22.528 37.888 15.36 72.704 37.888 103.424 66.56 60.416 57.344 93.184 135.168 93.184 217.088 1.024 81.92-32.768 158.72-93.184 217.088zM769.024 239.104c-51.2-49.152-119.808-76.8-192.512-77.824 18.432 10.24 35.84 22.528 51.2 36.864 44.032 41.984 68.608 99.328 68.608 158.72 0 60.416-24.576 117.76-69.632 160.768-8.192 8.192-16.384 14.336-24.576 20.48-4.096 2.048-8.192 4.096-12.288 4.096-5.12 0-10.24-2.048-14.336-5.12l-61.44-58.368v256h267.264l-57.344-55.296c-4.096-4.096-7.168-10.24-6.144-16.384s4.096-12.288 9.216-15.36c14.336-9.216 27.648-20.48 39.936-31.744 53.248-51.2 81.92-117.76 81.92-189.44 1.024-70.656-27.648-137.216-79.872-187.392z" />
<glyph unicode="&#x7b;" d="M770.048 140.8l-220.16 375.808c37.888 15.36 64.512 52.224 64.512 95.232 0 56.32-46.080 102.4-102.4 102.4s-102.4-46.080-102.4-102.4c0-43.008 26.624-79.872 64.512-95.232l-220.16-375.808c-4.096-6.144-4.096-14.336 0-20.48s10.24-10.24 17.408-10.24h481.28c7.168 0 14.336 4.096 17.408 10.24 4.096 6.144 4.096 14.336 0 20.48zM450.56 611.84c0 33.792 27.648 61.44 61.44 61.44s61.44-27.648 61.44-61.44-27.648-61.44-61.44-61.44-61.44 27.648-61.44 61.44zM307.2 151.040l204.8 348.16 204.8-348.16h-409.6zM738.304 468.48c26.624 44.032 39.936 93.184 39.936 143.36s-14.336 99.328-39.936 143.36c-6.144 9.216-3.072 22.528 7.168 27.648 9.216 6.144 22.528 3.072 27.648-7.168 30.72-50.176 46.080-106.496 46.080-163.84s-16.384-113.664-46.080-163.84c-4.096-6.144-10.24-10.24-17.408-10.24-4.096 0-7.168 1.024-10.24 3.072-10.24 6.144-13.312 18.432-7.168 27.648zM657.408 539.136c10.24 22.528 15.36 47.104 15.36 72.704s-5.12 50.176-15.36 72.704c-4.096 10.24 0 22.528 10.24 26.624s22.528 0 26.624-10.24c12.288-27.648 19.456-58.368 19.456-89.088s-6.144-61.44-18.432-89.088c-3.072-7.168-11.264-12.288-18.432-12.288-3.072 0-5.12 1.024-8.192 2.048-11.264 4.096-16.384 16.384-11.264 26.624zM250.88 448c-30.72 50.176-46.080 106.496-46.080 163.84s16.384 113.664 46.080 163.84c6.144 9.216 18.432 12.288 27.648 7.168 9.216-6.144 12.288-18.432 7.168-27.648-26.624-44.032-39.936-93.184-39.936-143.36s14.336-99.328 39.936-143.36c6.144-9.216 3.072-22.528-7.168-27.648-3.072-2.048-7.168-3.072-10.24-3.072-6.144 0-13.312 3.072-17.408 10.24zM329.728 522.752c-12.288 27.648-19.456 58.368-19.456 89.088s6.144 61.44 18.432 89.088c4.096 10.24 16.384 15.36 26.624 10.24 10.24-4.096 15.36-16.384 10.24-26.624-10.24-22.528-15.36-47.104-15.36-72.704s5.12-50.176 15.36-72.704c4.096-10.24 0-22.528-10.24-26.624-3.072-1.024-5.12-2.048-8.192-2.048-7.168 0-14.336 4.096-17.408 12.288z" />
<glyph unicode="&#x7c;" d="M593.92 570.88h-163.84c-11.264 0-20.48-9.216-20.48-20.48v-409.6c0-11.264 9.216-20.48 20.48-20.48h163.84c11.264 0 20.48 9.216 20.48 20.48v409.6c0 11.264-9.216 20.48-20.48 20.48zM573.44 161.28h-122.88v368.64h122.88v-368.64zM327.68 366.080h-163.84c-11.264 0-20.48-9.216-20.48-20.48v-204.8c0-11.264 9.216-20.48 20.48-20.48h163.84c11.264 0 20.48 9.216 20.48 20.48v204.8c0 11.264-9.216 20.48-20.48 20.48zM307.2 161.28h-122.88v163.84h122.88v-163.84zM860.16 775.68h-163.84c-11.264 0-20.48-9.216-20.48-20.48v-614.4c0-11.264 9.216-20.48 20.48-20.48h163.84c11.264 0 20.48 9.216 20.48 20.48v614.4c0 11.264-9.216 20.48-20.48 20.48zM839.68 161.28h-122.88v573.44h122.88v-573.44z" />
<glyph unicode="&#x7d;" d="M905.216 705.024l-65.536 64.512c-8.192 8.192-21.504 8.192-28.672 0l-137.216-137.216h-499.712c-11.264 0-20.48-9.216-20.48-20.48v-430.080c0-11.264 9.216-20.48 20.48-20.48h614.4c11.264 0 20.48 9.216 20.48 20.48v397.312l96.256 96.256c4.096 4.096 6.144 9.216 6.144 14.336 0 6.144-2.048 11.264-6.144 15.36zM768 202.24h-573.44v389.12h438.272l-113.664-113.664c-2.048-2.048-4.096-6.144-5.12-9.216l-17.408-71.68h-179.2c-11.264 0-20.48-9.216-20.48-20.48s9.216-20.48 20.48-20.48h194.56c1.024 0 39.936 9.216 67.584 16.384 14.336 3.072 24.576 6.144 24.576 6.144 4.096 1.024 7.168 3.072 9.216 5.12l154.624 154.624v-335.872zM588.8 416.256l-48.128-12.288 12.288 48.128 273.408 273.408 35.84-35.84-273.408-273.408z" />
<glyph unicode="&#x7e;" d="M649.216 697.856l-205.824 204.8c-6.144 6.144-14.336 7.168-22.528 4.096s-12.288-10.24-12.288-18.432v-91.136c-9.216 1.024-18.432 1.024-27.648 1.024-153.6 0-278.528-123.904-278.528-276.48 0-103.424 57.344-197.632 149.504-245.76 3.072-2.048 6.144-2.048 9.216-2.048 6.144 0 12.288 3.072 16.384 7.168 6.144 7.168 6.144 18.432 0 25.6-24.576 28.672-37.888 66.56-37.888 104.448 0 90.112 73.728 162.816 163.84 162.816 2.048 0 3.072 0 5.12 0v-96.256c0-8.192 5.12-15.36 12.288-18.432s16.384-1.024 22.528 4.096l205.824 204.8c4.096 4.096 6.144 9.216 6.144 14.336 0 6.144-2.048 11.264-6.144 15.36zM449.536 526.848v66.56c0 10.24-7.168 18.432-17.408 20.48-9.216 1.024-18.432 2.048-28.672 2.048-112.64 0-204.8-91.136-204.8-203.776 0-16.384 2.048-31.744 6.144-47.104-38.912 41.984-61.44 97.28-61.44 156.672 0 130.048 106.496 235.52 237.568 235.52 15.36 0 29.696-1.024 44.032-4.096 6.144-1.024 12.288 1.024 17.408 4.096 5.12 4.096 7.168 9.216 7.168 15.36v65.536l156.672-154.624-156.672-156.672zM772.096 620.032c-8.192 4.096-19.456 2.048-25.6-5.12s-6.144-18.432 0-25.6c24.576-28.672 37.888-66.56 37.888-104.448 0-90.112-73.728-162.816-163.84-162.816-2.048 0-3.072 0-5.12 0v96.256c0 8.192-5.12 15.36-12.288 18.432s-16.384 1.024-22.528-4.096l-205.824-204.8c-4.096-4.096-6.144-9.216-6.144-15.36 0-5.12 2.048-10.24 6.144-14.336l205.824-204.8c4.096-4.096 9.216-6.144 14.336-6.144 3.072 0 5.12 0 8.192 2.048 8.192 3.072 12.288 10.24 12.288 18.432v91.136c9.216-1.024 18.432-1.024 27.648-1.024 153.6 0 278.528 123.904 278.528 276.48 0 103.424-57.344 197.632-149.504 245.76zM643.072 137.728c-15.36 0-29.696 1.024-44.032 4.096-6.144 1.024-12.288 0-17.408-4.096s-7.168-9.216-7.168-15.36v-65.536l-156.672 155.648 156.672 155.648v-66.56c0-10.24 7.168-18.432 17.408-20.48 9.216-1.024 18.432-2.048 28.672-2.048 112.64 0 204.8 91.136 204.8 203.776 0 16.384-2.048 31.744-6.144 47.104 38.912-40.96 61.44-96.256 61.44-155.648 0-130.048-106.496-236.544-237.568-236.544z" />
<glyph unicode="&#xa3;" d="M880.64 714.24h-737.28c-11.264 0-20.48-9.216-20.48-20.48v-491.52c0-11.264 9.216-20.48 20.48-20.48h737.28c11.264 0 20.48 9.216 20.48 20.48v491.52c0 11.264-9.216 20.48-20.48 20.48zM860.16 222.72h-696.32v245.76h696.32v-245.76zM860.16 509.44h-696.32v61.44h696.32v-61.44zM860.16 611.84h-696.32v61.44h696.32v-61.44zM471.040 304.64c0-11.264-9.216-20.48-20.48-20.48h-204.8c-11.264 0-20.48 9.216-20.48 20.48s9.216 20.48 20.48 20.48h204.8c11.264 0 20.48-9.216 20.48-20.48z" />
<glyph unicode="&#x531;" d="M512 611.84c-90.112 0-163.84-73.728-163.84-163.84s73.728-163.84 163.84-163.84 163.84 73.728 163.84 163.84-73.728 163.84-163.84 163.84zM512 325.12c-67.584 0-122.88 55.296-122.88 122.88s55.296 122.88 122.88 122.88 122.88-55.296 122.88-122.88-55.296-122.88-122.88-122.88zM966.656 462.336l-88.064 89.088c-97.28 98.304-227.328 152.576-366.592 152.576s-269.312-54.272-366.592-152.576l-88.064-89.088c-8.192-8.192-8.192-20.48 0-28.672l88.064-89.088c97.28-98.304 227.328-152.576 366.592-152.576s269.312 54.272 366.592 152.576l88.064 89.088c8.192 8.192 8.192 20.48 0 28.672zM849.92 373.248c-90.112-90.112-209.92-140.288-337.92-140.288s-247.808 50.176-337.92 140.288l-73.728 74.752 73.728 74.752c90.112 90.112 209.92 140.288 337.92 140.288s247.808-50.176 337.92-140.288l73.728-74.752-73.728-74.752z" />
<glyph unicode="&#x532;" d="M880.64 314.88v245.76zM880.64 314.88v245.76zM102.4 314.88v245.76zM921.6 314.88v245.76zM645.12 325.12h-266.24c-11.264 0-20.48-9.216-20.48-20.48s9.216-20.48 20.48-20.48h266.24c11.264 0 20.48 9.216 20.48 20.48s-9.216 20.48-20.48 20.48zM645.12 222.72h-266.24c-11.264 0-20.48-9.216-20.48-20.48s9.216-20.48 20.48-20.48h266.24c11.264 0 20.48 9.216 20.48 20.48s-9.216 20.48-20.48 20.48zM645.12 325.12h-266.24c-11.264 0-20.48-9.216-20.48-20.48s9.216-20.48 20.48-20.48h266.24c11.264 0 20.48 9.216 20.48 20.48s-9.216 20.48-20.48 20.48zM645.12 222.72h-266.24c-11.264 0-20.48-9.216-20.48-20.48s9.216-20.48 20.48-20.48h266.24c11.264 0 20.48 9.216 20.48 20.48s-9.216 20.48-20.48 20.48zM645.12 222.72h-266.24c-11.264 0-20.48-9.216-20.48-20.48s9.216-20.48 20.48-20.48h266.24c11.264 0 20.48 9.216 20.48 20.48s-9.216 20.48-20.48 20.48zM645.12 325.12h-266.24c-11.264 0-20.48-9.216-20.48-20.48s9.216-20.48 20.48-20.48h266.24c11.264 0 20.48 9.216 20.48 20.48s-9.216 20.48-20.48 20.48zM378.88 284.16h266.24c11.264 0 20.48 9.216 20.48 20.48s-9.216 20.48-20.48 20.48h-266.24c-11.264 0-20.48-9.216-20.48-20.48s9.216-20.48 20.48-20.48zM645.12 222.72h-266.24c-11.264 0-20.48-9.216-20.48-20.48s9.216-20.48 20.48-20.48h266.24c11.264 0 20.48 9.216 20.48 20.48s-9.216 20.48-20.48 20.48zM839.68 642.56h-71.68v143.36c0 11.264-9.216 20.48-20.48 20.48h-471.040c-11.264 0-20.48-9.216-20.48-20.48v-143.36h-71.68c-45.056 0-81.92-36.864-81.92-81.92v-245.76c0-45.056 36.864-81.92 81.92-81.92h71.68v-122.88c0-11.264 9.216-20.48 20.48-20.48h471.040c11.264 0 20.48 9.216 20.48 20.48v122.88h71.68c45.056 0 81.92 36.864 81.92 81.92v245.76c0 45.056-36.864 81.92-81.92 81.92zM296.96 765.44h430.080v-122.88h-430.080v122.88zM727.040 130.56h-430.080v245.76h430.080v-245.76zM880.64 314.88c0-22.528-18.432-40.96-40.96-40.96h-71.68v122.88c0 11.264-9.216 20.48-20.48 20.48h-471.040c-11.264 0-20.48-9.216-20.48-20.48v-122.88h-71.68c-22.528 0-40.96 18.432-40.96 40.96v245.76c0 22.528 18.432 40.96 40.96 40.96h655.36c22.528 0 40.96-18.432 40.96-40.96v-245.76zM378.88 284.16h266.24c11.264 0 20.48 9.216 20.48 20.48s-9.216 20.48-20.48 20.48h-266.24c-11.264 0-20.48-9.216-20.48-20.48s9.216-20.48 20.48-20.48zM378.88 181.76h266.24c11.264 0 20.48 9.216 20.48 20.48s-9.216 20.48-20.48 20.48h-266.24c-11.264 0-20.48-9.216-20.48-20.48s9.216-20.48 20.48-20.48zM645.12 222.72h-266.24c-11.264 0-20.48-9.216-20.48-20.48s9.216-20.48 20.48-20.48h266.24c11.264 0 20.48 9.216 20.48 20.48s-9.216 20.48-20.48 20.48zM645.12 325.12h-266.24c-11.264 0-20.48-9.216-20.48-20.48s9.216-20.48 20.48-20.48h266.24c11.264 0 20.48 9.216 20.48 20.48s-9.216 20.48-20.48 20.48zM645.12 325.12h-266.24c-11.264 0-20.48-9.216-20.48-20.48s9.216-20.48 20.48-20.48h266.24c11.264 0 20.48 9.216 20.48 20.48s-9.216 20.48-20.48 20.48zM645.12 222.72h-266.24c-11.264 0-20.48-9.216-20.48-20.48s9.216-20.48 20.48-20.48h266.24c11.264 0 20.48 9.216 20.48 20.48s-9.216 20.48-20.48 20.48z" />
<glyph unicode="&#x533;" d="M471.040 448c0-11.264-9.216-20.48-20.48-20.48h-204.8c-11.264 0-20.48 9.216-20.48 20.48s9.216 20.48 20.48 20.48h204.8c11.264 0 20.48-9.216 20.48-20.48zM389.12 335.36h-143.36c-11.264 0-20.48-9.216-20.48-20.48s9.216-20.48 20.48-20.48h143.36c11.264 0 20.48 9.216 20.48 20.48s-9.216 20.48-20.48 20.48zM450.56 601.6h-204.8c-11.264 0-20.48-9.216-20.48-20.48s9.216-20.48 20.48-20.48h204.8c11.264 0 20.48 9.216 20.48 20.48s-9.216 20.48-20.48 20.48zM901.12 693.76v-491.52c0-11.264-9.216-20.48-20.48-20.48h-737.28c-11.264 0-20.48 9.216-20.48 20.48v491.52c0 11.264 9.216 20.48 20.48 20.48h737.28c11.264 0 20.48-9.216 20.48-20.48zM860.16 673.28h-696.32v-450.56h696.32v450.56zM808.96 294.4c0-11.264-9.216-20.48-20.48-20.48h-286.72c-11.264 0-20.48 9.216-20.48 20.48 0 67.584 40.96 124.928 99.328 150.528-19.456 19.456-32.768 46.080-32.768 74.752 0 54.272 45.056 102.4 97.28 102.4s97.28-48.128 97.28-102.4c0-28.672-12.288-56.32-32.768-74.752 58.368-25.6 99.328-82.944 99.328-150.528zM588.8 519.68c0-28.672 24.576-61.44 56.32-61.44s56.32 32.768 56.32 61.44c0 28.672-24.576 61.44-56.32 61.44s-56.32-32.768-56.32-61.44zM765.952 314.88c-10.24 58.368-60.416 102.4-120.832 102.4s-111.616-44.032-120.832-102.4h241.664z" />
</font>
</defs>
</svg>
